<svg id="47eae691-299c-4ac3-8aa5-5f07ff7ff6c2" data-name="BitBucket" xmlns="http://www.w3.org/2000/svg" viewBox="0 0 64 64"><title>bitbucket</title><rect id="6a4e7002-39d2-41ed-b775-1a5686f109a0" data-name="BG" width="64" height="64" style="fill:#205082"/><g id="a178ded5-f4d5-4cd6-9904-a5631e2557cf" data-name="Icon"><path d="M32,14h0c-8.58378,0-15.59383,2.30686-15.59383,5.17214,0,0.75579,1.87306,11.57771,2.61551,15.86891,0.33194,1.92526,5.30651,4.74607,12.97419,4.74607l0.00826-.02171v0.02171c7.66768,0,12.64225-2.82081,12.97419-4.74607,0.74245-4.2912,2.61551-15.11312,2.61551-15.86891C47.59382,16.30686,40.58378,14,32,14Zm0,22.31079a4.956,4.956,0,1,1,4.957-4.95709A4.95657,4.95657,0,0,1,32,36.31079ZM31.99789,20.77171c-5.51531-.00826-9.9864-0.96681-9.98429-2.14041,0.002-1.17466,4.47459-2.11765,9.99053-2.10939,5.51541,0.00932,9.98439.96681,9.98227,2.14253C41.98439,19.83592,37.51181,20.781,31.99789,20.77171Z" style="fill:#fff"/><path d="M43.20712,39.34146A0.72182,0.72182,0,0,0,42.781,39.51S38.93921,42.551,32,42.551,21.219,39.51,21.219,39.51a0.72182,0.72182,0,0,0-.42607-0.16856,0.549,0.549,0,0,0-.5526.61211,0.73576,0.73576,0,0,0,.01345.13034c0.596,3.18992,1.0314,5.45336,1.10732,5.79865C21.88072,48.22869,26.47061,50,32,50h0c5.52938,0,10.11928-1.77131,10.63895-4.11745,0.07592-.34528.51131-2.60873,1.10742-5.79865a0.74562,0.74562,0,0,0,.01334-0.13034A0.549,0.549,0,0,0,43.20712,39.34146Z" style="fill:#fff"/><circle cx="31.99468" cy="31.35348" r="2.48381" style="fill:#fff"/></g></svg>