<svg xmlns="http://www.w3.org/2000/svg" viewBox="0 0 64 64"><title>bitbucket</title><rect width="64" height="64" style="fill:#205082"/><path d="M32,15h0c-8.1069,0-14.7275,2.1787-14.7275,4.8848,0,0.7138,1.769,10.9345,2.4702,14.9873,0.3135,1.8183,5.0117,4.4824,12.2534,4.4824l0.0078-.0205v0.0205c7.2417,0,11.9399-2.6641,12.2534-4.4824,0.7012-4.0528,2.4702-14.2735,2.4702-14.9873C46.7275,17.1787,40.1069,15,32,15Zm0,21.0713a4.68065,4.68065,0,1,1,4.6816-4.6817A4.68121,4.68121,0,0,1,32,36.0713ZM31.998,21.3955c-5.2089-.0078-9.4316-0.9131-9.4296-2.0215,0.0019-1.1094,4.226-2,9.4355-1.9922,5.209,0.0088,9.4297.9131,9.4277,2.0235C41.4297,20.5117,37.2056,21.4043,31.998,21.3955Z" style="fill:#fff"/><path d="M42.5845,38.9336a0.68172,0.68172,0,0,0-.4024.1592S38.5537,41.9648,32,41.9648s-10.1821-2.872-10.1821-2.872a0.68172,0.68172,0,0,0-.4024-0.1592,0.51849,0.51849,0,0,0-.5219.5781,0.69489,0.69489,0,0,0,.0127.1231c0.5629,3.0127.9741,5.1504,1.0458,5.4765C22.4429,47.3271,26.7778,49,32,49h0c5.2222,0,9.5571-1.6729,10.0479-3.8887,0.0717-.3261.4829-2.4638,1.0459-5.4765a0.7042,0.7042,0,0,0,.0126-0.1231A0.51849,0.51849,0,0,0,42.5845,38.9336Z" style="fill:#fff"/><circle cx="31.99497" cy="31.3894" r="2.34582" style="fill:#fff"/></svg>