<svg id="ae5b7954-47d9-47eb-9b50-07cee562b95c" data-name="BitBucket" xmlns="http://www.w3.org/2000/svg" viewBox="0 0 56 56"><title>bitbucket</title><rect width="56" height="56" style="fill:#205082"/><g id="bc96736e-928c-4d94-9d09-d7fbe10d54d7" data-name="Bitbucket"><path d="M28,10h0c-8.58378,0-15.59383,2.30686-15.59383,5.17214,0,0.75579,1.87306,11.57771,2.61551,15.86891,0.33194,1.92526,5.30651,4.74607,12.97419,4.74607l0.00826-.02171v0.02171c7.66768,0,12.64225-2.82081,12.97419-4.74607,0.74245-4.2912,2.61551-15.11312,2.61551-15.86891C43.59382,12.30686,36.58378,10,28,10Zm0,22.31079a4.956,4.956,0,1,1,4.957-4.95709A4.95657,4.95657,0,0,1,28,32.31079ZM27.99789,16.77171c-5.51531-.00826-9.9864-0.96681-9.98429-2.14041,0.002-1.17466,4.47459-2.11765,9.99053-2.10939,5.51541,0.00932,9.98439.96681,9.98227,2.14253C37.98439,15.83592,33.51181,16.781,27.99789,16.77171Z" style="fill:#fff"/><path d="M39.20712,35.34146A0.72182,0.72182,0,0,0,38.781,35.51S34.93921,38.551,28,38.551,17.219,35.51,17.219,35.51a0.72182,0.72182,0,0,0-.42607-0.16856,0.549,0.549,0,0,0-.5526.61211,0.73576,0.73576,0,0,0,.01345.13034c0.596,3.18992,1.0314,5.45336,1.10732,5.79865C17.88072,44.22869,22.47061,46,28,46h0c5.52938,0,10.11928-1.77131,10.63895-4.11745,0.07592-.34528.51131-2.60873,1.10742-5.79865a0.74562,0.74562,0,0,0,.01334-0.13034A0.549,0.549,0,0,0,39.20712,35.34146Z" style="fill:#fff"/><circle cx="27.99468" cy="27.35348" r="2.48381" style="fill:#fff"/></g></svg>