<svg id="fa07b89a-0d45-480b-ac73-3921234af359" data-name="Blogger" xmlns="http://www.w3.org/2000/svg" viewBox="0 0 56 56"><title>blogger</title><rect width="56" height="56" style="fill:#ef7d0e"/><path d="M29.16231,12l-7.4002.11648H21.68674a9.19313,9.19313,0,0,0-7.59891,3.41231,9.12,9.12,0,0,0-1.61708,5.11162H12.46388L12.25832,33.3715h-0.0137c-0.00235.03714,0.00219,0.07254,0,.10963-0.00044.028-.00671,0.05424-0.00687,0.08222h0.00687c-0.15307,2.96527.46389,5.78886,2.40506,7.77706,1.97416,2.022,4.772,2.689,7.66058,2.65859,0.01386-.00015.02724,0.00017,0.04111,0H33.84223a10.02772,10.02772,0,0,0,7.19464-2.80934,10.689,10.689,0,0,0,2.74081-7.46187V33.63188c-0.02841-1.49181.00828-2.61843-.06852-3.76177a5.69075,5.69075,0,0,0-1.59652-3.96733,5.98273,5.98273,0,0,0-4.09752-1.50745c-0.14531-.00888-0.28955-0.015-0.43853-0.02054a12.10067,12.10067,0,0,0,.21927-3.74806c-0.01006-.12328-0.00834-0.25609-0.02054-0.37686h-0.0137A8.73331,8.73331,0,0,0,29.3062,12H29.16231ZM22.324,18.578l6.42721,0.10278a2.74118,2.74118,0,1,1-.08908,5.48163l-6.42036-.10278A2.74112,2.74112,0,0,1,22.324,18.578ZM21.55655,31.13774H34.39727a2.74109,2.74109,0,1,1,.07754,5.48163q-0.03876.00055-.07754,0H21.55656a2.74109,2.74109,0,0,1-.07754-5.48163q0.03876-.00055.07754,0h0Z" style="fill:#fff"/></svg>