<svg xmlns="http://www.w3.org/2000/svg" viewBox="0 0 64 64"><title>codepen</title><rect width="64" height="64" style="fill:#1d1d1b"/><path d="M49.98619,26.31376c-0.00328-.02273-0.009-0.04448-0.01272-0.06721-0.00763-.04358-0.01564-0.08714-0.027-0.12975-0.00667-.02558-0.01612-0.05018-0.02412-0.07478-0.01236-.03788-0.02461-0.07576-0.03975-0.11267C49.872,25.90378,49.85977,25.8782,49.848,25.8536c-0.01623-.035-0.0332-0.06915-0.0526-0.10223-0.01419-.02467-0.02933-0.04837-0.044-0.072-0.02085-.03225-0.04217-0.06351-0.06545-0.09382-0.017-.02266-0.03492-0.04539-0.053-0.06721-0.0246-.02836-0.05018-0.05678-0.07721-0.08333-0.02023-.02079-0.04024-0.04163-0.06157-0.06061-0.02836-.02551-0.05769-0.05018-0.0875-0.07381-0.02316-.018-0.04594-0.036-0.07006-0.053-0.00909-.0057-0.017-0.01328-0.02557-0.019L32.858,14.25994a1.54647,1.54647,0,0,0-1.71617,0l-16.453,10.96865c-0.00849.0057-.01654,0.01328-0.02552,0.019-0.02418.017-.0469,0.035-0.06963,0.053-0.03031.02363-.0597,0.04831-0.08758,0.07381-0.02176.019-.04164,0.03982-0.06206,0.06061-0.02691.02655-.05249,0.055-0.07667,0.08333-0.01842.02182-.03642,0.04455-0.05351,0.06721-0.02273.03031-.04455,0.06157-0.06485,0.09382-0.01564.02363-.0303,0.04733-0.04448,0.072-0.019.03309-.036,0.06721-0.0526,0.10223-0.01182.0246-.02413,0.05018-0.03454,0.07575-0.01515.03691-.02745,0.07479-0.03977,0.11267-0.00805.0246-.017,0.0492-0.02418,0.07478-0.01133.04261-.0189,0.08617-0.027,0.12975-0.00375.02273-.00945,0.04448-0.0123,0.06721A1.49311,1.49311,0,0,0,14,26.51545V37.48409a1.52,1.52,0,0,0,.01417.20266c0.00285,0.02182.00855,0.04448,0.0123,0.06618,0.00807,0.04364.01564,0.08715,0.027,0.12981,0.00715,0.02558.01612,0.05018,0.02418,0.07479,0.01231,0.03782.02461,0.07575,0.03977,0.11357,0.01041,0.0257.02273,0.0503,0.03454,0.0749,0.01661,0.03491.03364,0.069,0.0526,0.10315,0.01419,0.02376.02884,0.04728,0.04448,0.071,0.02031,0.03223.04213,0.06351,0.06485,0.09381,0.01709,0.02363.03509,0.04545,0.05351,0.06715,0.02418,0.02836.04976,0.05685,0.07667,0.08339,0.02042,0.02073.0403,0.04158,0.06206,0.06048,0.02788,0.02569.05727,0.0503,0.08758,0.07394,0.02273,0.01806.04545,0.036,0.06963,0.053,0.009,0.0057.017,0.01333,0.02552,0.0189l16.453,10.96877a1.54421,1.54421,0,0,0,1.71617,0l16.453-10.96877c0.0086-.00557.01648-0.01321,0.02557-0.0189,0.02413-.017.0469-0.03491,0.07006-0.053,0.02981-.02363.05914-0.04824,0.0875-0.07394,0.02133-.0189.04134-0.03975,0.06157-0.06048,0.027-.02655.05261-0.055,0.07721-0.08339,0.01806-.0217.036-0.04352,0.053-0.06715,0.02327-.0303.04459-0.06157,0.06545-0.09381,0.01467-.02376.02981-0.04728,0.044-0.071,0.0194-.03418.03637-0.06824,0.0526-0.10315,0.01177-.0246.024-0.0492,0.03456-0.0749,0.01514-.03782.02739-0.07575,0.03975-0.11357,0.008-.02461.01745-0.04921,0.02412-0.07479,0.01139-.04266.0194-0.08617,0.027-0.12981,0.00375-.0217.00945-0.04436,0.01272-0.06618A1.61433,1.61433,0,0,0,50,37.48409V26.51545A1.58528,1.58528,0,0,0,49.98619,26.31376ZM33.547,18.43759l12.12048,8.07973-5.41384,3.6218L33.547,25.65281V18.43759Zm-3.094,0v7.21522L23.7467,30.13912l-5.41427-3.6218ZM17.09393,29.411l3.87039,2.58874-3.87039,2.5888V29.411ZM30.453,45.562L18.33243,37.48216l5.41427-3.62082L30.453,38.34673V45.562Zm1.54721-9.9025-5.47154-3.65968,5.47154-3.65967,5.47112,3.65967ZM33.547,45.562V38.34673l6.70665-4.48539,5.41384,3.62082Zm13.359-10.97338L43.036,31.99977,46.90594,29.411v5.17755Z" style="fill:#fff"/></svg>