<svg xmlns="http://www.w3.org/2000/svg" viewBox="0 0 64 64"><title>digg</title><rect width="64" height="64" style="fill:#191919"/><path d="M17.6904,34.29882h1.6949v-4.6113H17.6904v4.6113ZM14,26.46882h5.3853V21.7725h3.6904V37.53132H14V26.46882Zm14.46-1.4776H24.7695V21.7725H28.46v3.21872Zm0,12.5401H24.7695V26.46882H28.46v11.0625Zm5.3852-3.2325H35.54v-4.6113H33.8452v4.6113ZM30.1548,42.2275V39.00882H35.54v-1.4775H30.1548V26.46882h9.0757V42.2275H30.1548Zm14.4599-7.92868h1.6949v-4.6113H44.6147v4.6113ZM40.9243,42.2275V39.00882h5.3853v-1.4775H40.9243V26.46882H50V42.2275H40.9243Z" style="fill:#fff"/></svg>