<svg id="dc6bda62-c374-425b-b065-93b2a04671cb" data-name="Digg" xmlns="http://www.w3.org/2000/svg" viewBox="0 0 56 56"><title>digg</title><rect width="56" height="56" style="fill:#191919"/><path id="6e68ff22-c314-48d5-ba1d-49cdb8ee20ac" data-name="Digg" d="M13.6904,30.2988h1.6949V25.6875H13.6904v4.6113ZM10,22.4688h5.3853V17.7725h3.6904V33.5313H10V22.4688Zm14.46-1.4776H20.7695V17.7725H24.46v3.2187Zm0,12.5401H20.7695V22.4688H24.46V33.5313Zm5.3852-3.2325H31.54V25.6875H29.8452v4.6113Zm-3.6904,7.9287V35.0088H31.54V33.5313H26.1548V22.4688h9.0757V38.2275H26.1548Zm14.4599-7.9287h1.6949V25.6875H40.6147v4.6113Zm-3.6904,7.9287V35.0088h5.3853V33.5313H36.9243V22.4688H46V38.2275H36.9243Z" style="fill:#fff"/></svg>