<svg id="ec8cc85e-c6e4-4173-a90e-35649c17180f" data-name="Dropbox" xmlns="http://www.w3.org/2000/svg" viewBox="0 0 56 56"><title>dropbox</title><rect width="56" height="56" style="fill:#3175bb"/><polygon points="20.59 11.258 10 18.172 17.322 24.036 28 17.443 20.59 11.258" style="fill:#fff"/><polygon points="10 29.9 20.59 36.814 28 30.629 17.322 24.036 10 29.9" style="fill:#fff"/><polygon points="28 30.629 35.41 36.814 46 29.9 38.678 24.036 28 30.629" style="fill:#fff"/><polygon points="46 18.172 35.41 11.258 28 17.443 38.678 24.036 46 18.172" style="fill:#fff"/><polygon points="28.022 31.96 20.59 38.127 17.41 36.051 17.41 38.378 28.022 44.742 38.634 38.378 38.634 36.051 35.454 38.127 28.022 31.96" style="fill:#fff"/></svg>