<svg xmlns="http://www.w3.org/2000/svg" viewBox="0 0 64 64"><title>dropbox</title><rect width="64" height="64" style="fill:#3175bb"/><polygon points="24.59 15.258 14 22.172 21.322 28.036 32 21.443 24.59 15.258" style="fill:#fff"/><polygon points="14 33.9 24.59 40.814 32 34.629 21.322 28.036 14 33.9" style="fill:#fff"/><polygon points="32 34.629 39.41 40.814 50 33.9 42.678 28.036 32 34.629" style="fill:#fff"/><polygon points="50 22.172 39.41 15.258 32 21.443 42.678 28.036 50 22.172" style="fill:#fff"/><polygon points="32.022 35.96 24.59 42.127 21.41 40.051 21.41 42.378 32.022 48.742 42.634 42.378 42.634 40.051 39.454 42.127 32.022 35.96" style="fill:#fff"/></svg>