<svg id="d0c1ac73-0867-4aa5-8de8-11062a8c3d66" data-name="Foursquare" xmlns="http://www.w3.org/2000/svg" viewBox="0 0 56 56"><title>foursquare</title><rect width="56" height="56" style="fill:#ea4c78"/><path d="M38.73342,11H19.53293a3.18023,3.18023,0,0,0-3.42877,3.24752V44.75434A2.05842,2.05842,0,0,0,17.29047,46.865a2.18216,2.18216,0,0,0,2.311-.49564S28.66629,35.851,28.822,35.69529a0.47014,0.47014,0,0,1,.471-0.23552h5.86487c2.46441,0,2.86047-1.75739,3.11782-2.7926,0.21437-.86686,2.61874-13.17553,3.42164-17.08061C42.3103,12.6065,41.55293,11,38.73342,11ZM38.27571,32.66718c0.21437-.86686,2.61874-13.17553,3.42164-17.08061m-4.098.61017L36.7934,20.39713a1.34524,1.34524,0,0,1-1.198.93172H28.11545a1.36787,1.36787,0,0,0-1.44393,1.41448v0.91582a1.3893,1.3893,0,0,0,1.44807,1.43794h6.346a1.13528,1.13528,0,0,1,1.049,1.28613c-0.129.63549-.73232,3.78344-0.80476,4.13073a1.24348,1.24348,0,0,1-1.17758.94206h-5.18a1.85276,1.85276,0,0,0-1.85975.90756c-0.63158.785-6.30741,7.60112-6.30741,7.60112-0.05748.066-.11361,0.04691-0.11361-0.02506V16.1344a1.19982,1.19982,0,0,1,1.167-1.167H36.64689A0.99881,0.99881,0,0,1,37.59931,16.19674Z" style="fill:#fff"/></svg>