<svg xmlns="http://www.w3.org/2000/svg" viewBox="0 0 64 64"><title>foursquare</title><rect width="64" height="64" style="fill:#ea4c78"/><path d="M42.73342,15H23.53293a3.18023,3.18023,0,0,0-3.42877,3.24752V48.75434A2.05842,2.05842,0,0,0,21.29047,50.865a2.18216,2.18216,0,0,0,2.311-.49564S32.66629,39.851,32.822,39.69529a0.47014,0.47014,0,0,1,.471-0.23552h5.86487c2.46441,0,2.86047-1.75739,3.11782-2.7926,0.21437-.86686,2.61874-13.17553,3.42164-17.08061C46.3103,16.6065,45.55293,15,42.73342,15ZM42.27571,36.66718c0.21437-.86686,2.61874-13.17553,3.42164-17.08061m-4.098.61017L40.7934,24.39713a1.34524,1.34524,0,0,1-1.198.93172H32.11545a1.36787,1.36787,0,0,0-1.44393,1.41448v0.91582a1.3893,1.3893,0,0,0,1.44807,1.43794h6.346a1.13528,1.13528,0,0,1,1.049,1.28613c-0.129.63549-.73232,3.78344-0.80476,4.13073a1.24348,1.24348,0,0,1-1.17758.94206h-5.18a1.85276,1.85276,0,0,0-1.85975.90756c-0.63158.785-6.30741,7.60112-6.30741,7.60112-0.05748.066-.11361,0.04691-0.11361-0.02506V20.1344a1.19982,1.19982,0,0,1,1.167-1.167H40.64689A0.99881,0.99881,0,0,1,41.59931,20.19674Z" style="fill:#fff"/></svg>