<svg id="04724269-04bf-49d0-9502-c86023457446" data-name="GitHub" xmlns="http://www.w3.org/2000/svg" viewBox="0 0 64 64"><title>github</title><rect id="b2aaf99d-105f-40e6-8138-3db9b7625333" data-name="BG" width="64" height="64" style="fill:#231e1b"/><path id="4612bb6f-cd06-4d39-85d0-650ef1a78959" data-name="Icon" d="M31.99884,14.44448a18.00171,18.00171,0,0,0-5.68844,35.08008,0.90466,0.90466,0,0,0,1.22854-.86765c0-.4273-0.01558-1.55927-0.02431-3.06141-5.007,1.08776-6.06347-2.41288-6.06347-2.41288a4.76658,4.76658,0,0,0-1.99851-2.633c-1.6343-1.11683.12365-1.09417,0.12365-1.09417a3.781,3.781,0,0,1,2.75709,1.855A3.83247,3.83247,0,0,0,27.57186,42.806a3.846,3.846,0,0,1,1.14279-2.40636c-3.997-.45427-8.199-1.99851-8.199-8.89616a6.95767,6.95767,0,0,1,1.85276-4.83008,6.47417,6.47417,0,0,1,.17647-4.76367s1.51131-.484,4.94986,1.84524a17.06127,17.06127,0,0,1,9.01262,0c3.43645-2.32924,4.945-1.84524,4.945-1.84524a6.46515,6.46515,0,0,1,.17912,4.76367,6.94585,6.94585,0,0,1,1.85022,4.83008c0,6.91489-4.20851,8.43647-8.21846,8.88212a4.296,4.296,0,0,1,1.222,3.33335c0,2.40636-.0221,4.34774-0.0221,4.93793a0.90151,0.90151,0,0,0,1.23771.86555A18.00268,18.00268,0,0,0,31.99884,14.44448Z" style="fill:#fff;fill-rule:evenodd"/></svg>