<svg id="GitLab" xmlns="http://www.w3.org/2000/svg" viewBox="0 0 56 56"><title>gitlab</title><rect id="BG" width="56" height="56" style="fill:#30353e"/><g id="Icon"><path id="path46" d="M47.46755,30.58355l-2.18681-6.73014L40.94679,10.5147a0.74493,0.74493,0,0,0-1.4169,0L35.19584,23.85341H20.80419L16.47,10.5147a0.74493,0.74493,0,0,0-1.41689,0L10.71919,23.85341,8.53248,30.58355a1.48982,1.48982,0,0,0,.54117,1.66574L28,46,46.92637,32.24929a1.49,1.49,0,0,0,.54118-1.66574" style="fill:#ed6e30"/><path id="path50" d="M28,46h0l7.19588-22.14659H20.80413L28,46h0Z" style="fill:#e34429"/><path id="path58" d="M28,46L20.80413,23.85348H10.71923L28,46h0Z" style="fill:#ed6e30"/><path id="path66" d="M10.71923,23.85344h0L8.53242,30.58359a1.48966,1.48966,0,0,0,.54128,1.66563L28,45.99993,10.71923,23.85344h0Z" style="fill:#f6a22c"/><path id="path74" d="M10.71923,23.85347h10.0849L16.47007,10.51475a0.74489,0.74489,0,0,0-1.41689,0L10.71923,23.85347h0Z" style="fill:#e34429"/><path id="path78" d="M28,46l7.19588-22.14648h10.0849L28,46h0Z" style="fill:#ed6e30"/><path id="path82" d="M45.28077,23.85344h0l2.18681,6.73014a1.48966,1.48966,0,0,1-.54128,1.66563L28,45.99993,45.28077,23.85344h0Z" style="fill:#f6a22c"/><path id="path86" d="M45.28077,23.85347H35.19587l4.33405-13.33872a0.74489,0.74489,0,0,1,1.41689,0l4.33395,13.33872h0Z" style="fill:#e34429"/></g></svg>