<svg id="6bf852d4-dd32-4b9a-9ad6-4d3b2ce56975" data-name="GitLab" xmlns="http://www.w3.org/2000/svg" viewBox="0 0 64 64"><title>gitlab</title><rect id="1c691127-d707-43ab-a4e3-2db7349e9563" data-name="BG" width="64" height="64" style="fill:#30353e"/><g id="10665f2a-b2dd-4a87-b1a6-fd2722b7df85" data-name="Icon"><path id="59c9495e-d9c5-4050-a14f-d208fd8a91e3" data-name="path46" d="M51.46755,34.58355l-2.18681-6.73014L44.94679,14.5147a0.74493,0.74493,0,0,0-1.4169,0L39.19584,27.85341H24.80419L20.47,14.5147a0.74493,0.74493,0,0,0-1.41689,0L14.71919,27.85341l-2.18671,6.73014a1.48982,1.48982,0,0,0,.54117,1.66574L32,50,50.92637,36.24929a1.49,1.49,0,0,0,.54118-1.66574" style="fill:#ed6e30"/><path id="bcab46f3-5e4d-419e-b505-bc895c487395" data-name="path50" d="M32,50h0l7.19588-22.14659H24.80413L32,50h0Z" style="fill:#e34429"/><path id="82405fda-7349-4ed7-9f41-2637310d86f6" data-name="path58" d="M32,50L24.80413,27.85348H14.71923L32,50h0Z" style="fill:#ed6e30"/><path id="bce97406-e455-40dd-b984-dc11edc85e26" data-name="path66" d="M14.71923,27.85344h0l-2.18681,6.73014a1.48966,1.48966,0,0,0,.54128,1.66563L32,49.99993,14.71923,27.85344h0Z" style="fill:#f6a22c"/><path id="c11ff624-a34a-4f42-93e6-71a19da1e5d7" data-name="path74" d="M14.71923,27.85347h10.0849L20.47007,14.51475a0.74489,0.74489,0,0,0-1.41689,0L14.71923,27.85347h0Z" style="fill:#e34429"/><path id="507744e3-ec84-4d3b-999a-50b5ab78918c" data-name="path78" d="M32,50l7.19588-22.14648h10.0849L32,50h0Z" style="fill:#ed6e30"/><path id="2c27d728-fb6c-4d94-bcdd-114a28c046df" data-name="path82" d="M49.28077,27.85344h0l2.18681,6.73014a1.48966,1.48966,0,0,1-.54128,1.66563L32,49.99993,49.28077,27.85344h0Z" style="fill:#f6a22c"/><path id="5360e385-a9fa-4df8-810b-ff8207f3b33c" data-name="path86" d="M49.28077,27.85347H39.19587l4.33405-13.33872a0.74489,0.74489,0,0,1,1.41689,0l4.33395,13.33872h0Z" style="fill:#e34429"/></g></svg>