<svg xmlns="http://www.w3.org/2000/svg" viewBox="0 0 64 64"><title>gitlab</title><rect width="64" height="64" style="fill:#30353e"/><path d="M51.46755,34.58355l-2.18681-6.73014L44.94679,14.5147a0.74493,0.74493,0,0,0-1.4169,0L39.19584,27.85341H24.80419L20.47,14.5147a0.74493,0.74493,0,0,0-1.41689,0L14.71919,27.85341l-2.18671,6.73014a1.48982,1.48982,0,0,0,.54117,1.66574L32,50,50.92637,36.24929a1.49,1.49,0,0,0,.54118-1.66574" style="fill:#ed6e30"/><path d="M32,50h0l7.19588-22.14659H24.80413L32,50h0Z" style="fill:#e34429"/><path d="M32,50L24.80413,27.85348H14.71923L32,50h0Z" style="fill:#ed6e30"/><path d="M14.71923,27.85344h0l-2.18681,6.73014a1.48966,1.48966,0,0,0,.54128,1.66563L32,49.99993,14.71923,27.85344h0Z" style="fill:#f6a22c"/><path d="M14.71923,27.85347h10.0849L20.47007,14.51475a0.74489,0.74489,0,0,0-1.41689,0L14.71923,27.85347h0Z" style="fill:#e34429"/><path d="M32,50l7.19588-22.14648h10.0849L32,50h0Z" style="fill:#ed6e30"/><path d="M49.28077,27.85344h0l2.18681,6.73014a1.48966,1.48966,0,0,1-.54128,1.66563L32,49.99993,49.28077,27.85344h0Z" style="fill:#f6a22c"/><path d="M49.28077,27.85347H39.19587l4.33405-13.33872a0.74489,0.74489,0,0,1,1.41689,0l4.33395,13.33872h0Z" style="fill:#e34429"/></svg>