<svg id="b4866d4f-fe0c-47f4-a483-8905ccf5080c" data-name="Google Plus" xmlns="http://www.w3.org/2000/svg" viewBox="0 0 56 56"><title>googleplus</title><rect width="56" height="56" style="fill:#c63828"/><path id="ac529c3a-0ecf-4f97-ac12-915c3baabcc9" data-name="Shape" d="M21.45455,26.36364v3.92727h6.49636a6.18578,6.18578,0,0,1-6.49636,4.94182,7.23393,7.23393,0,0,1,0-14.46545A6.44616,6.44616,0,0,1,26.02,22.53455L29.12909,19.54a10.98,10.98,0,0,0-7.67455-2.99455,11.45455,11.45455,0,1,0,0,22.90909c6.61091,0,10.99636-4.64727,10.99636-11.19273a10.53653,10.53653,0,0,0-.18-1.89818H21.45455Z" style="fill:#fff"/><path id="c102f39a-0e31-474e-9540-aa350ea94414" data-name="Shape-Copy" d="M46,26.36364H42.72727V23.09091H39.45455v3.27273H36.18182v3.27273h3.27273v3.27273h3.27273V29.63636H46" style="fill:#fff"/></svg>