<svg xmlns="http://www.w3.org/2000/svg" viewBox="0 0 64 64"><title>googleplus</title><rect width="64" height="64" style="fill:#c63828"/><path d="M25.45455,30.36364v3.92727h6.49636a6.18578,6.18578,0,0,1-6.49636,4.94182,7.23393,7.23393,0,0,1,0-14.46545A6.44616,6.44616,0,0,1,30.02,26.53455L33.12909,23.54a10.98,10.98,0,0,0-7.67455-2.99455,11.45455,11.45455,0,1,0,0,22.90909c6.61091,0,10.99636-4.64727,10.99636-11.19273a10.53653,10.53653,0,0,0-.18-1.89818H25.45455Z" style="fill:#fff"/><path d="M50,30.36364H46.72727V27.09091H43.45455v3.27273H40.18182v3.27273h3.27273v3.27273h3.27273V33.63636H50" style="fill:#fff"/></svg>