<svg id="ab2b46c9-1d81-4765-81f5-f6655b65b7b8" data-name="Google Plus" xmlns="http://www.w3.org/2000/svg" viewBox="0 0 64 64"><title>googleplus</title><rect id="74031f1b-90b9-43ad-b36e-ceecda02559a" data-name="BG" width="64" height="64" style="fill:#c63828"/><g id="332a56f6-30e4-42a7-a377-c75f25429e25" data-name="Icon"><path id="ead94687-3db4-407f-8bd3-c075ffbf3156" data-name="Shape" d="M25.45455,30.36364v3.92727h6.49636a6.18578,6.18578,0,0,1-6.49636,4.94182,7.23393,7.23393,0,0,1,0-14.46545A6.44616,6.44616,0,0,1,30.02,26.53455L33.12909,23.54a10.98,10.98,0,0,0-7.67455-2.99455,11.45455,11.45455,0,1,0,0,22.90909c6.61091,0,10.99636-4.64727,10.99636-11.19273a10.53653,10.53653,0,0,0-.18-1.89818H25.45455Z" style="fill:#fff"/><path id="c94a607d-691d-4b71-8726-fe4c45225d3f" data-name="Shape-Copy" d="M50,30.36364H46.72727V27.09091H43.45455v3.27273H40.18182v3.27273h3.27273v3.27273h3.27273V33.63636H50" style="fill:#fff"/></g></svg>