<svg id="a96c5e05-7d4f-40a5-a55b-f8f74e316d4c" data-name="GrooveShark" xmlns="http://www.w3.org/2000/svg" viewBox="0 0 64 64"><title>grooveshark</title><rect id="18f7cb83-6f39-4ed9-be76-9d136fd12de3" data-name="BG" width="64" height="64" style="fill:#ea5a24"/><path id="bf5d37d6-570f-4858-b1f2-ba2eb86fdc44" data-name="Icon" d="M48.2852,27.29A16.9268,16.9268,0,1,0,48.9531,32,16.95544,16.95544,0,0,0,48.2852,27.29Zm-5.6978,8.333a8.42067,8.42067,0,0,1-3.352-2.93158c-0.9737-1.36032-1.9708-2.69822-3.0616-3.96682a32.81811,32.81811,0,0,0-3.3027-3.3652,17.73548,17.73548,0,0,0-3.8853-2.6914,18.14408,18.14408,0,0,0-2.9428-1.0928,0.54909,0.54909,0,0,0-.5147-0.0322,0.59691,0.59691,0,0,0-.0019.3476c0.0249,0.21.0498,0.42092,0.0752,0.62992a18.00741,18.00741,0,0,1-.3619,7.60648,7.96714,7.96714,0,0,1-2.2016,3.45012,4.89838,4.89838,0,0,1-3.2446,1.49608,2.36366,2.36366,0,0,1-.6612-0.1201c-1.2822-.4316-1.3564-1.8144-1.3637-2.9531a14.24343,14.24343,0,0,1,.4409-3.62888c0.0932-.3662.206-0.72362,0.3281-1.08112a14.22983,14.22983,0,0,1,26.9282,0H45.4609c0.1231,0.3575.2378,0.71492,0.3311,1.08112A14.40211,14.40211,0,0,1,46.2334,32c-0.0186,2.3018-.7568,4.84182-3.646,3.623" style="fill:#fff"/></svg>