<svg id="971ddc56-a50d-4e29-b3c4-08cfe39c86bb" data-name="GrooveShark" xmlns="http://www.w3.org/2000/svg" viewBox="0 0 56 56"><title>grooveshark</title><rect width="56" height="56" style="fill:#ea5a24"/><g id="bb21e2c1-da14-4494-951e-0e50f3995619" data-name="Grooveshark"><path d="M44.2852,23.29A16.9268,16.9268,0,1,0,44.9531,28,16.95544,16.95544,0,0,0,44.2852,23.29Zm-5.6978,8.333a8.42058,8.42058,0,0,1-3.352-2.9316c-0.9737-1.3603-1.9708-2.6982-3.0616-3.9668a32.81631,32.81631,0,0,0-3.3027-3.3652,17.73548,17.73548,0,0,0-3.8853-2.6914,18.14408,18.14408,0,0,0-2.9428-1.0928,0.549,0.549,0,0,0-.5147-0.0322,0.59691,0.59691,0,0,0-.0019.3476c0.0249,0.21.0498,0.4209,0.0752,0.6299a18.00751,18.00751,0,0,1-.3619,7.6065,7.96718,7.96718,0,0,1-2.2016,3.4501,4.8984,4.8984,0,0,1-3.2446,1.4961,2.36429,2.36429,0,0,1-.6612-0.1201c-1.2822-.4316-1.3564-1.8144-1.3637-2.9531a14.24367,14.24367,0,0,1,.4409-3.6289c0.0932-.3662.206-0.7236,0.3281-1.0811a14.22981,14.22981,0,0,1,26.9282,0H41.4609c0.1231,0.3575.2378,0.7149,0.3311,1.0811A14.40235,14.40235,0,0,1,42.2334,28c-0.0186,2.3018-.7568,4.8418-3.646,3.623" style="fill:#fff"/><path d="M28,10A18,18,0,1,0,46,28,18,18,0,0,0,28,10Zm0,33.74506A15.74509,15.74509,0,1,1,43.74457,28,15.74432,15.74432,0,0,1,28,43.74506Z" style="fill:#fff"/></g></svg>