<svg id="bb1164e1-fb62-4bbe-ab82-7ab6e7b9363f" data-name="ICheckMovies" xmlns="http://www.w3.org/2000/svg" viewBox="0 0 56 56"><title>icheckmovies</title><rect width="56" height="56" style="fill:#383838"/><g id="44317fae-576f-4312-976a-8e811bf25882" data-name="iCheckMovies"><circle cx="27.99917" cy="28.05618" r="17.94616" style="fill:#fff"/><path d="M17.70776,21.90143a7.25137,7.25137,0,0,0-3.0639,1.83365,0.81042,0.81042,0,0,0,.02311.75259c0.47228,0.94789,2.38687,1.99961,3.25909,2.94739,0.67177,0.72948,2.39848,2.83722,3.02714,3.763a52.82827,52.82827,0,0,1,3.37463,5.3909c0.41564,0.91736,1.16189,2.93481,2.01637,3.49114a6.64791,6.64791,0,0,0,2.59882.36942,7.26387,7.26387,0,0,0,1.89879-.83546,16.759,16.759,0,0,0,2.86549-2.97469c0.77785-.91532,1.52206-3.05229,2.1072-4.102C36.92663,30.541,38.8338,27.35,40.04975,25.41869a68.47463,68.47463,0,0,1,5.1726-7.13642,69.36154,69.36154,0,0,1,6.17821-5.3521,64.71946,64.71946,0,0,1,5.47011-3.84164A1.16975,1.16975,0,0,0,57.02652,7.343a3.84537,3.84537,0,0,0-1.98-.33588,18.08667,18.08667,0,0,0-3.721.64651,39.864,39.864,0,0,0-3.8784,2.45824,49.87958,49.87958,0,0,0-4.89078,4.05586A38.56578,38.56578,0,0,0,38.44589,18.825c-1.18811,1.49777-3.53983,4.71494-4.57693,6.32191A50.05594,50.05594,0,0,0,30.53431,30.797a0.66542,0.66542,0,0,1-.82708,0A21.49637,21.49637,0,0,0,26.8081,26.7633c-0.6004-.73679-1.93974-2.09193-2.58313-2.793a8.177,8.177,0,0,0-3.42816-2.42889C19.99381,21.22654,19.55722,21.30726,17.70776,21.90143Z" style="fill:#b8182d"/></g></svg>