<svg id="dce3dec3-f2fc-427b-99b9-9fb333c217eb" data-name="IMDB" xmlns="http://www.w3.org/2000/svg" viewBox="0 0 56 56"><title>imdb</title><rect width="56" height="56" style="fill:#e8ba03"/><rect x="8" y="19.8821" width="4.14751" height="16.02813" style="fill:#13110c"/><path d="M20.97388,19.8821l-0.95923,7.498L19.4244,23.30682c-0.17725-1.31466-.33948-2.45043-0.50228-3.42472H13.55V35.91023H17.1809l0.01446-10.58264,1.52056,10.58264h2.583l1.46093-10.81895V35.91023h3.61645V19.8821H20.97388Z" style="fill:#13110c;fill-rule:evenodd"/><path d="M32.81067,35.91023a11.62847,11.62847,0,0,0,2.22977-.16132A2.684,2.684,0,0,0,36.28,35.17224a2.09261,2.09261,0,0,0,.70772-1.13577,12.80992,12.80992,0,0,0,.222-2.87846v-5.6229a18.92868,18.92868,0,0,0-.16147-3.05573,2.77805,2.77805,0,0,0-.68028-1.401,3.1588,3.1588,0,0,0-1.623-.91673,17.37577,17.37577,0,0,0-3.85144-.27955H27.79308V35.91023h5.01759Zm0.04605-13.13536a0.6166,0.6166,0,0,1,.30848.4425,6.93423,6.93423,0,0,1,.075,1.40248v6.21388a5.327,5.327,0,0,1-.20767,1.94874,1.17186,1.17186,0,0,1-1.09252.369V22.62639A1.898,1.898,0,0,1,32.85672,22.77488Z" style="fill:#13110c;fill-rule:evenodd"/><path d="M38.61216,19.8821V35.91023h3.73468l0.25077-1.01754a3.45963,3.45963,0,0,0,1.12145.92972,3.76523,3.76523,0,0,0,1.476.29549,2.74042,2.74042,0,0,0,1.698-.51615,2.28554,2.28554,0,0,0,.91378-1.22507A9.31584,9.31584,0,0,0,48,32.23474v-4.5a15.63912,15.63912,0,0,0-.075-1.8897,2.2288,2.2288,0,0,0-.369-0.91526,2.20457,2.20457,0,0,0-.92972-0.72367,3.78624,3.78624,0,0,0-1.43126-.25077,4.198,4.198,0,0,0-1.49045.2797,3.55016,3.55016,0,0,0-1.107.872v-5.225H38.61216ZM43.99861,32.03a5.52,5.52,0,0,1-.11808,1.46019,0.7265,0.7265,0,0,1-.66316.30981,0.48209,0.48209,0,0,1-.48707-0.294,4.14908,4.14908,0,0,1-.13269-1.35776V27.91056a4.65483,4.65483,0,0,1,.11823-1.35776,0.46175,0.46175,0,0,1,.47276-0.26523,0.73777,0.73777,0,0,1,.67748.31,4.0609,4.0609,0,0,1,.13254,1.313V32.03Z" style="fill:#13110c;fill-rule:evenodd"/></svg>