<svg id="b0bbd271-9892-4bce-b222-3cd7b08ee628" data-name="Instagram" xmlns="http://www.w3.org/2000/svg" viewBox="0 0 64 64"><title>instagram</title><rect id="799bc6c8-e1c6-42b7-8fa6-2d58b8efc03c" data-name="BG" width="64" height="64" style="fill:#125789"/><path d="M42.83331,17H21.16669A4.16666,4.16666,0,0,0,17,21.16663V42.83331A4.16667,4.16667,0,0,0,21.16669,47H42.83331A4.16667,4.16667,0,0,0,47,42.83331V21.16663A4.16666,4.16666,0,0,0,42.83331,17ZM32,26.16663A5.83334,5.83334,0,1,1,26.16669,32,5.83333,5.83333,0,0,1,32,26.16663ZM43.66669,42.83331a0.83331,0.83331,0,0,1-.83337.83331H21.16669a0.83331,0.83331,0,0,1-.83337-0.83331V29.5h2.854a9.16672,9.16672,0,1,0,17.62537,0h2.854V42.83331Zm0-17.5a0.83331,0.83331,0,0,1-.83337.83331H38.66669a0.83331,0.83331,0,0,1-.83337-0.83331V21.16663a0.83335,0.83335,0,0,1,.83337-0.83331h4.16663a0.83335,0.83335,0,0,1,.83337.83331v4.16669Z" style="fill:#fff"/></svg>