<svg id="22bebf5e-60b3-4eab-8286-9d0a65d420b5" data-name="Instagram" xmlns="http://www.w3.org/2000/svg" viewBox="0 0 56 56"><title>instagram</title><rect width="56" height="56" style="fill:#125789"/><path d="M38.83331,13H17.16669A4.16666,4.16666,0,0,0,13,17.16663V38.83331A4.16667,4.16667,0,0,0,17.16669,43H38.83331A4.16667,4.16667,0,0,0,43,38.83331V17.16663A4.16666,4.16666,0,0,0,38.83331,13ZM28,22.16663A5.83334,5.83334,0,1,1,22.16669,28,5.83333,5.83333,0,0,1,28,22.16663ZM39.66669,38.83331a0.83331,0.83331,0,0,1-.83337.83331H17.16669a0.83331,0.83331,0,0,1-.83337-0.83331V25.5h2.854a9.16672,9.16672,0,1,0,17.62537,0h2.854V38.83331Zm0-17.5a0.83331,0.83331,0,0,1-.83337.83331H34.66669a0.83331,0.83331,0,0,1-.83337-0.83331V17.16663a0.83335,0.83335,0,0,1,.83337-0.83331h4.16663a0.83335,0.83335,0,0,1,.83337.83331v4.16669Z" style="fill:#fff"/></svg>