<svg xmlns="http://www.w3.org/2000/svg" viewBox="0 0 64 64"><title>instagram</title><rect width="64" height="64" style="fill:#e4405f"/><path d="M32,18.88288c4.27219,0,4.77822.01629,6.46536,0.09327a8.85334,8.85334,0,0,1,2.971.55093,5.29862,5.29862,0,0,1,3.03657,3.03658,8.85327,8.85327,0,0,1,.55093,2.971c0.077,1.68717.09327,2.19319,0.09327,6.46538s-0.01629,4.77822-.09327,6.46536a8.85334,8.85334,0,0,1-.55093,2.971,5.29862,5.29862,0,0,1-3.03657,3.03657,8.85334,8.85334,0,0,1-2.971.55093c-1.6869.077-2.19288,0.09327-6.46536,0.09327s-4.77846-.01629-6.46536-0.09327a8.8533,8.8533,0,0,1-2.971-.55093,5.29862,5.29862,0,0,1-3.03658-3.03657,8.8533,8.8533,0,0,1-.55093-2.971c-0.077-1.68717-.09327-2.19319-0.09327-6.46538s0.01629-4.77822.09327-6.46536a8.8533,8.8533,0,0,1,.55093-2.971,5.29862,5.29862,0,0,1,3.03658-3.03658,8.85327,8.85327,0,0,1,2.971-.55093c1.68717-.077,2.19319-0.09327,6.46538-0.09327M32,16c-4.34535,0-4.89021.0184-6.59677,0.09627a11.74386,11.74386,0,0,0-3.88385.74371A8.18142,8.18142,0,0,0,16.84,21.51937a11.74386,11.74386,0,0,0-.74371,3.88385C16.0184,27.10979,16,27.65464,16,32s0.0184,4.89021.09627,6.59677A11.74385,11.74385,0,0,0,16.84,42.48063,8.18142,8.18142,0,0,0,21.51937,47.16a11.74377,11.74377,0,0,0,3.88385.74371C27.10979,47.98161,27.65465,48,32,48s4.89021-.01839,6.59677-0.09627A11.74376,11.74376,0,0,0,42.48063,47.16,8.18143,8.18143,0,0,0,47.16,42.48063a11.74376,11.74376,0,0,0,.74371-3.88385C47.98159,36.89021,48,36.34535,48,32s-0.01841-4.89021-.09627-6.59677A11.74377,11.74377,0,0,0,47.16,21.51937,8.18142,8.18142,0,0,0,42.48063,16.84a11.74385,11.74385,0,0,0-3.88385-.74371C36.89021,16.0184,36.34535,16,32,16h0Z" style="fill:#fff"/><path d="M32,23.78378A8.21621,8.21621,0,1,0,40.21622,32,8.21622,8.21622,0,0,0,32,23.78378Zm0,13.54955A5.33333,5.33333,0,1,1,37.33333,32,5.33333,5.33333,0,0,1,32,37.33333Z" style="fill:#fff"/><circle cx="40.54084" cy="23.45916" r="1.92" style="fill:#fff"/></svg>