<svg id="Invision" xmlns="http://www.w3.org/2000/svg" viewBox="0 0 56 56"><title>invision</title><rect id="BG" width="56" height="56" style="fill:#e83b68"/><g id="Icon"><path d="M18.87659,19.8502a2.92542,2.92542,0,1,0-2.9685-2.92586A2.93478,2.93478,0,0,0,18.87659,19.8502Z" style="fill:#fff"/><path d="M12.72093,35.51579a10.04771,10.04771,0,0,0-.262,2.19768C12.45891,40.28977,13.856,42,16.82482,42c2.46238,0,4.45845-1.46235,5.89552-3.82327L21.8428,41.69891h4.88947l2.79441-11.20782c0.69837-2.838,2.05178-4.31075,4.10391-4.31075a2.44336,2.44336,0,0,1,2.61963,2.66293,5.2366,5.2366,0,0,1-.21835,1.57179l-1.441,5.15152a7.74423,7.74423,0,0,0-.30525,2.1829c0,2.44578,1.44035,4.23478,4.45281,4.23478,2.576,0,4.62784-1.65834,5.76294-5.63143l-1.92072-.7416c-0.96061,2.66179-1.79016,3.14311-2.44489,3.14311-0.655,0-1.00452-.43635-1.00452-1.30916a5.79383,5.79383,0,0,1,.21835-1.354l1.39734-5.019a11.06678,11.06678,0,0,0,.48028-3.18372c0-3.75467-2.27045-5.714-5.02091-5.714-2.57572,0-5.1954,2.32328-6.5049,4.76846L30.66172,22.554H23.19621l-1.04787,3.86581h3.49274L23.4905,35.03088c-1.68927,3.75466-4.79186,3.81558-5.18111,3.72834a1.09618,1.09618,0,0,1-1.04816-1.21764,8.22817,8.22817,0,0,1,.30557-1.99807L20.84148,22.554h-8.295l-1.04784,3.86581h3.4488Z" style="fill:#fff"/></g></svg>