<svg id="02cc90ce-fee8-4068-b2f0-a57463aecfd7" data-name="Issuu" xmlns="http://www.w3.org/2000/svg" viewBox="0 0 56 56"><title>issuu</title><rect width="56" height="56" style="fill:#ed6e5f"/><path d="M28.21661,18.77872a9.15638,9.15638,0,1,0,9.07009,9.24258A9.157,9.157,0,0,0,28.21661,18.77872Zm-0.13,13.79228a4.63644,4.63644,0,1,1,4.68011-4.59251A4.63659,4.63659,0,0,1,28.08661,32.571Z" style="fill:#fff"/><path d="M28.00021,10.00006c-0.02873,0-.05694.001-0.08562,0.00109V9.99927H11.49635A1.50072,1.50072,0,0,0,10,11.49563v16.5049A18,18,0,1,0,28.00021,10.00006ZM15.63372,27.7517A12.49771,12.49771,0,1,1,28.013,40.366,12.49839,12.49839,0,0,1,15.63372,27.7517Z" style="fill:#fff"/></svg>