<svg xmlns="http://www.w3.org/2000/svg" viewBox="0 0 64 64"><title>issuu</title><rect width="64" height="64" style="fill:#ed6e5f"/><path d="M32.21661,22.77872a9.15638,9.15638,0,1,0,9.07009,9.24258A9.157,9.157,0,0,0,32.21661,22.77872Zm-0.13,13.79228a4.63644,4.63644,0,1,1,4.68011-4.59251A4.63659,4.63659,0,0,1,32.08661,36.571Z" style="fill:#fff"/><path d="M32.00021,14.00006c-0.02873,0-.05694.001-0.08562,0.00109V13.99927H15.49635A1.50072,1.50072,0,0,0,14,15.49563v16.5049A18,18,0,1,0,32.00021,14.00006ZM19.63372,31.7517A12.49771,12.49771,0,1,1,32.013,44.366,12.49839,12.49839,0,0,1,19.63372,31.7517Z" style="fill:#fff"/></svg>