<svg xmlns="http://www.w3.org/2000/svg" viewBox="0 0 64 64"><title>jsfiddle</title><rect y="-0.09552" width="64" height="64.19105" style="fill:#477aa6"/><path d="M45.6326,30.87534c0.01285-.21053.0319-0.41924,0.0319-0.63251a10.73185,10.73185,0,0,0-20.36962-4.53236,4.962,4.962,0,0,0-3.02035-1.02167,4.90329,4.90329,0,0,0-4.94066,4.865,4.76857,4.76857,0,0,0,.22329,1.45A7.11355,7.11355,0,0,0,14,37.14208a7.19421,7.19421,0,0,0,7.14167,7.138l0.08385,0.00456,0.02917,0.00091,0.02917-.00091H42.52294c0.12942,0.00629.2561,0.01914,0.38734,0.01914A6.96623,6.96623,0,0,0,45.6326,30.87534ZM23.6644,38.90288a4.1936,4.1936,0,0,1-1.34613-2.36962,5.21252,5.21252,0,0,1-.08932-0.97883,4.20741,4.20741,0,0,1,1.44729-3.28365,5.31115,5.31115,0,0,1,3.68385-1.29609,6.25307,6.25307,0,0,1,4.24709,1.718,9.138,9.138,0,0,1,.92142.96334l1.63859,1.92677a6.52032,6.52032,0,0,0,.90228,1.00609A3.9536,3.9536,0,0,0,37.595,37.72263a2.34608,2.34608,0,0,0,1.645-.60334,2.03133,2.03133,0,0,0,.64991-1.3124l0.00993-.22229a2.01,2.01,0,0,0-.09469-0.62512,2.07349,2.07349,0,0,0-.576-0.88141,2.29037,2.29037,0,0,0-1.64962-.62066,3.458,3.458,0,0,0-2.51189,1.13368L33.61672,32.885l-0.17681-.19777a5.54122,5.54122,0,0,1,4.24071-1.70977,5.22312,5.22312,0,0,1,3.67018,1.28607l0.021,0.01722a4.25412,4.25412,0,0,1,1.42815,3.31665,5.04087,5.04087,0,0,1-.08932.96143,4.17135,4.17135,0,0,1-1.34339,2.34775,4.82655,4.82655,0,0,1-2.5756,1.21488,6.7824,6.7824,0,0,1-1.06624.08111,6.25269,6.25269,0,0,1-4.2572-1.67787,8.44473,8.44473,0,0,1-.96325-1.02987l-1.63868-1.913a6.30406,6.30406,0,0,0-.88861-0.99615,3.98089,3.98089,0,0,0-2.55737-1.131,2.6693,2.6693,0,0,0-.69175.08658,2.147,2.147,0,0,0-.93965.52961A2.0318,2.0318,0,0,0,25.17,35.15615a2.08514,2.08514,0,0,0-.041.42471,2.01866,2.01866,0,0,0,.62886,1.49195l0.0319,0.03007a2.36716,2.36716,0,0,0,1.65965.617,3.44716,3.44716,0,0,0,2.52091-1.14279L31.414,38.26218l0.15949,0.1923A5.60883,5.60883,0,0,1,27.36284,40.187,5.335,5.335,0,0,1,23.6644,38.90288Z" style="fill:#fff"/></svg>