<svg id="6f3848da-8f9a-41b0-a8a2-0287286e788b" data-name="Last.fm" xmlns="http://www.w3.org/2000/svg" viewBox="0 0 64 64"><title>lastfm</title><rect id="1b928fcf-988c-4708-83c4-0dacf053f1ea" data-name="BG" width="64" height="64" style="fill:#d51416"/><path id="7cffe3f9-d250-436c-b891-19419d7d9cb3" data-name="Icon" d="M29.87635,39.81432l-1.31977-3.58741A7.854,7.854,0,0,1,23.196,38.61873c-2.84569,0-4.8661-2.47428-4.8661-6.4331,0-5.0721,2.55643-6.8865,5.07226-6.8865,3.62864,0,4.78316,2.35043,5.77306,5.36089L30.495,34.78377C31.81429,38.7835,34.28858,42,41.42248,42,46.53629,42,50,40.43313,50,36.30954c0-3.34017-1.89718-5.07226-5.44367-5.89708l-2.63906-.57726C40.103,29.42287,39.567,28.68053,39.567,27.44338c0-1.40207,1.11313-2.22689,2.92784-2.22689,1.97933,0,3.05138.74235,3.21647,2.51552l4.12359-.495C49.505,23.5258,46.94846,22,42.74224,22c-3.71111,0-7.34007,1.40207-7.34007,5.89692,0,2.80414,1.36084,4.57747,4.78316,5.40212l2.80446,0.65957c2.103,0.495,2.80383,1.36084,2.80383,2.55691,0,1.52546-1.48438,2.14411-4.28852,2.14411-4.165,0-5.8966-2.18549-6.88651-5.196l-1.36084-4.12343C31.52614,23.97936,28.76291,22,23.27832,22,17.21663,22,14,25.835,14,32.3504c0,6.26817,3.21663,9.64942,8.99,9.64942,4.65914,0,6.88635-2.18549,6.88635-2.18549h0Z" style="fill:#fff"/></svg>