<svg id="9dc29cfb-9918-45aa-9873-c492d96ee488" data-name="Last.fm" xmlns="http://www.w3.org/2000/svg" viewBox="0 0 56 56"><title>lastfm</title><rect width="56" height="56" style="fill:#d51416"/><path d="M25.87635,35.81432l-1.31977-3.58741A7.854,7.854,0,0,1,19.196,34.61873c-2.84569,0-4.8661-2.47428-4.8661-6.4331,0-5.0721,2.55643-6.8865,5.07226-6.8865,3.62864,0,4.78316,2.35043,5.77306,5.36089L26.495,30.78377C27.81429,34.7835,30.28858,38,37.42248,38,42.53629,38,46,36.43313,46,32.30954c0-3.34017-1.89718-5.07226-5.44367-5.89708l-2.63906-.57726C36.103,25.42287,35.567,24.68053,35.567,23.44338c0-1.40207,1.11313-2.22689,2.92784-2.22689,1.97933,0,3.05138.74235,3.21647,2.51552l4.12359-.495C45.505,19.5258,42.94846,18,38.74224,18c-3.71111,0-7.34007,1.40207-7.34007,5.89692,0,2.80414,1.36084,4.57747,4.78316,5.40212l2.80446,0.65957c2.103,0.495,2.80383,1.36084,2.80383,2.55691,0,1.52546-1.48438,2.14411-4.28852,2.14411-4.165,0-5.8966-2.18549-6.88651-5.196l-1.36084-4.12343C27.52614,19.97936,24.76291,18,19.27832,18,13.21663,18,10,21.835,10,28.3504c0,6.26817,3.21663,9.64942,8.99,9.64942,4.65914,0,6.88635-2.18549,6.88635-2.18549h0Z" style="fill:#fff"/></svg>