<svg xmlns="http://www.w3.org/2000/svg" viewBox="0 0 64 64"><title>linkedin</title><rect width="64" height="64" style="fill:#0078b6"/><path d="M19.46244,27.30525h5.80314V45.976H19.46244V27.30525Zm2.9029-9.28123A3.36442,3.36442,0,1,1,19,21.38738,3.36552,3.36552,0,0,1,22.36534,18.024" style="fill:#fff"/><path d="M28.905,27.30525h5.56647v2.551h0.07721A6.09633,6.09633,0,0,1,40.039,26.84055c5.87609,0,6.961,3.86707,6.961,8.894V45.976H41.2011V36.8964c0-2.1661-.0398-4.95106-3.01538-4.95106-3.01965,0-3.48209,2.35887-3.48209,4.79424V45.976H28.905V27.30525Z" style="fill:#fff"/></svg>