<svg id="f635c291-bd2e-4d25-984a-a1892e7d16db" data-name="LinkedIn" xmlns="http://www.w3.org/2000/svg" viewBox="0 0 56 56"><title>linkedin</title><rect width="56" height="56" style="fill:#0078b6"/><path d="M15.46244,23.30525h5.80314V41.976H15.46244V23.30525Zm2.9029-9.28123A3.36442,3.36442,0,1,1,15,17.38738,3.36552,3.36552,0,0,1,18.36534,14.024" style="fill:#fff"/><path d="M24.905,23.30525h5.56647v2.551h0.07721A6.09633,6.09633,0,0,1,36.039,22.84055c5.87609,0,6.961,3.86707,6.961,8.894V41.976H37.2011V32.8964c0-2.1661-.0398-4.95106-3.01538-4.95106-3.01965,0-3.48209,2.35887-3.48209,4.79424V41.976H24.905V23.30525Z" style="fill:#fff"/></svg>