<svg xmlns="http://www.w3.org/2000/svg" viewBox="0 0 64 64"><title>medium</title><rect width="64" height="64" style="fill:#0eaa6e"/><path d="M47.90228,23.41369a0.11275,0.11275,0,0,0-.01874-0.01493l-0.0109-.00545-9.65322-4.82663a1.014,1.014,0,0,0-.20316-0.07264,1.07049,1.07049,0,0,0-.26531-0.036,1.10475,1.10475,0,0,0-.93683.50927l-5.55757,9.031,6.97433,11.33327,9.70088-15.7638A0.1174,0.1174,0,0,0,47.90228,23.41369Z" style="fill:#fff"/><polygon points="28.196 25.941 28.196 36.221 37.333 40.79 28.196 25.941" style="fill:#fff"/><path d="M38.70611,41.47667l7.52167,3.76084C47.20654,45.72684,48,45.38434,48,44.47241V26.37412Z" style="fill:#fff"/><path d="M26.60935,23.42832l-9.42788-4.714a1.08034,1.08034,0,0,0-.479-0.12541A0.73876,0.73876,0,0,0,16,19.4445V39.79956a1.76022,1.76022,0,0,0,.88611,1.43374l8.30372,4.15186a1.34955,1.34955,0,0,0,.59881.15677,0.92349,0.92349,0,0,0,.878-1.06945V23.521A0.10366,0.10366,0,0,0,26.60935,23.42832Z" style="fill:#fff"/></svg>