<svg id="6bf6b127-ebab-473c-a037-6daadb5b5c9c" data-name="Medium" xmlns="http://www.w3.org/2000/svg" viewBox="0 0 64 64"><title>medium</title><rect id="73283730-f5e6-4f9a-985b-adafabf7067e" data-name="BG" width="64" height="64" style="fill:#0daa6d"/><g id="6970eb51-82a2-4d70-8d27-eae881e3586d" data-name="Icon"><path id="c461d498-c157-46f4-9bcb-06b073a5abf7" data-name="&lt;Pad&gt;" d="M37.62832,18.25994a0.188,0.188,0,0,0-.29538.18256V40.77975l9.78093,4.89047A0.564,0.564,0,0,0,48,45.12256V23.62064a0.2829,0.2829,0,0,0-.15639-0.253Z" style="fill:#d0d2d3"/><path id="3663b230-9068-4a81-9c96-f0fe7c939652" data-name="&lt;Pad&gt;" d="M26.66706,35.45336L37.161,18.40065a0.36842,0.36842,0,0,1,.46846-0.13357l10.13679,5.0684a0.24047,0.24047,0,0,1,.09726.34111L37.33411,40.78689Z" style="fill:#a6a8ab"/><path id="f989ffdf-27b4-4a1b-a4bf-5bacfc4f9d62" data-name="&lt;Pad&gt;" d="M17.18151,18.71014c-0.64983-.32492-0.87-0.0845-0.48919.53427l9.97474,16.20895,10.66705,5.33353L26.736,23.565a0.46161,0.46161,0,0,0-.18666-0.17092Z" style="fill:#808284"/><path id="7840bcab-048f-4de4-ba95-58d17bf7be4e" data-name="&lt;Pad&gt;" d="M26.66706,45.12969a0.564,0.564,0,0,1-.88614.54767l-9.19017-4.59509A1.17354,1.17354,0,0,1,16,40.1264V18.77988a0.376,0.376,0,0,1,.59075-0.36511l9.94479,4.97239a0.23792,0.23792,0,0,1,.13153.2128V45.12969Z" style="fill:#595a5c"/></g></svg>