<svg id="Medium" xmlns="http://www.w3.org/2000/svg" viewBox="0 0 56 56"><title>medium</title><rect id="BG" width="56" height="56" style="fill:#0daa6d"/><g id="Icon"><path id="_Pad_" data-name="&lt;Pad&gt;" d="M33.62832,14.25994a0.188,0.188,0,0,0-.29538.18256V36.77975l9.78093,4.89047A0.564,0.564,0,0,0,44,41.12256V19.62064a0.2829,0.2829,0,0,0-.15639-0.253Z" style="fill:#d0d2d3"/><path id="_Pad_2" data-name="&lt;Pad&gt;" d="M22.66706,31.45336L33.161,14.40065a0.36842,0.36842,0,0,1,.46846-0.13357l10.13679,5.0684a0.24047,0.24047,0,0,1,.09726.34111L33.33411,36.78689Z" style="fill:#a6a8ab"/><path id="_Pad_3" data-name="&lt;Pad&gt;" d="M13.18151,14.71014c-0.64983-.32492-0.87-0.0845-0.48919.53427l9.97474,16.20895,10.66705,5.33353L22.736,19.565a0.46161,0.46161,0,0,0-.18666-0.17092Z" style="fill:#808284"/><path id="_Pad_4" data-name="&lt;Pad&gt;" d="M22.66706,41.12969a0.564,0.564,0,0,1-.88614.54767l-9.19017-4.59509A1.17354,1.17354,0,0,1,12,36.1264V14.77988a0.376,0.376,0,0,1,.59075-0.36511l9.94479,4.97239a0.23792,0.23792,0,0,1,.13153.2128V41.12969Z" style="fill:#595a5c"/></g></svg>