<svg id="7b1f4506-8ec7-440d-952b-f7485e023e34" data-name="MySpace" xmlns="http://www.w3.org/2000/svg" viewBox="0 0 56 56"><title>myspace</title><rect width="56" height="56" style="fill:#11110e"/><ellipse cx="39.05396" cy="23.00757" rx="5.41011" ry="5.3897" style="fill:#fff"/><ellipse cx="26.86747" cy="24.54466" rx="4.86933" ry="4.85122" style="fill:#fff"/><ellipse cx="15.81597" cy="25.9292" rx="4.38241" ry="4.36504" style="fill:#fff"/><path d="M15.8161,31.29061A4.95112,4.95112,0,0,0,11,36.24947v1.696h0a0.43821,0.43821,0,0,0,.43761.43663h8.75565a0.43842,0.43842,0,0,0,.43846-0.43663h0v-1.696A4.95074,4.95074,0,0,0,15.8161,31.29061Z" style="fill:#fff"/><path d="M26.86743,30.5017a5.50189,5.50189,0,0,0-5.35167,5.51038V37.8967h0a0.48711,0.48711,0,0,0,.4864.48542h9.7292a0.48713,0.48713,0,0,0,.48742-0.48542h0V36.01208A5.50162,5.50162,0,0,0,26.86743,30.5017Z" style="fill:#fff"/><path d="M39.054,29.62644a6.11283,6.11283,0,0,0-5.946,6.12265v2.09379h0a0.54119,0.54119,0,0,0,.54053.53924H44.45811A0.54148,0.54148,0,0,0,45,37.84288h0V35.74909A6.11262,6.11262,0,0,0,39.054,29.62644Z" style="fill:#fff"/></svg>