<svg xmlns="http://www.w3.org/2000/svg" viewBox="0 0 64 64"><title>myspace</title><rect width="64" height="64" style="fill:#11110e"/><ellipse cx="43.05396" cy="27.00757" rx="5.41011" ry="5.3897" style="fill:#fff"/><ellipse cx="30.86747" cy="28.54466" rx="4.86933" ry="4.85122" style="fill:#fff"/><ellipse cx="19.81597" cy="29.9292" rx="4.38241" ry="4.36504" style="fill:#fff"/><path d="M19.8161,35.29061A4.95112,4.95112,0,0,0,15,40.24947v1.696h0a0.43821,0.43821,0,0,0,.43761.43663h8.75565a0.43842,0.43842,0,0,0,.43846-0.43663h0v-1.696A4.95074,4.95074,0,0,0,19.8161,35.29061Z" style="fill:#fff"/><path d="M30.86743,34.5017a5.50189,5.50189,0,0,0-5.35167,5.51038V41.8967h0a0.48711,0.48711,0,0,0,.4864.48542h9.7292a0.48713,0.48713,0,0,0,.48742-0.48542h0V40.01208A5.50162,5.50162,0,0,0,30.86743,34.5017Z" style="fill:#fff"/><path d="M43.054,33.62644a6.11283,6.11283,0,0,0-5.946,6.12265v2.09379h0a0.54119,0.54119,0,0,0,.54053.53924H48.45811A0.54148,0.54148,0,0,0,49,41.84288h0V39.74909A6.11262,6.11262,0,0,0,43.054,33.62644Z" style="fill:#fff"/></svg>