<svg id="9861dd4e-d2ae-4545-9589-127b22996ded" data-name="Path" xmlns="http://www.w3.org/2000/svg" viewBox="0 0 56 56"><title>path</title><rect width="56" height="56" style="fill:#e6311b"/><path id="fbdad231-ac60-4e53-839c-4145f31dcaa4" data-name="Path" d="M19.94238,13.40917A11.85554,11.85554,0,0,0,12.248,22.41209a13.05187,13.05187,0,0,0,.8497,7.86132,8.653,8.653,0,0,0,.9277,1.5411,7.29713,7.29713,0,0,0,.5723.6699,6.82508,6.82508,0,0,0,1.0546-.4824,24.26664,24.26664,0,0,0,3.61041-3.01371c-3.98341-4.61431.2373-10.332,5.51761-11.60742,4.915-1.1856,11.57712.8603,13.06743,5.91791a5.64887,5.64887,0,0,1-1.4942,5.92681,6.61,6.61,0,0,1-3.22651,1.5322A7.75906,7.75906,0,0,1,31,30.832a8.83171,8.83171,0,0,1-1.1719-.1972c-0.6533-.1543-1.2353-0.1309-1.2353-0.836V21.50389c0-.5654.0547-0.459-0.4131-0.5176-0.3701-.0449-0.7393-0.081-1.1104-0.1103a16.13431,16.13431,0,0,0-3.96091.0508c-0.4834.083-.5137,0.0058-0.5137,0.5302V25.8311c0,3.08881.2324,6.21381,0.1045,9.29782-0.0371.918-.0625,3.12311-1.0908,3.57811-1.1924.5274-2.2461-.5879-3.34571-0.8203,0.1514,1.5488-.8174,4.61531.9873,5.39651a7.4415,7.4415,0,0,0,5.30271.3926c3.65341-1.2403,4.834-5.30671,4.37211-8.64852A12.0113,12.0113,0,0,0,43.06643,28.7988,10.67562,10.67562,0,0,0,41.47273,17.582C36.62892,11.80367,26.7969,10.69527,19.94238,13.40917Z" style="fill:#fff"/></svg>