<svg xmlns="http://www.w3.org/2000/svg" viewBox="0 0 64 64"><title>path</title><rect width="64" height="64" style="fill:#e6311b"/><path d="M23.94238,17.40917A11.85554,11.85554,0,0,0,16.248,26.41209a13.05187,13.05187,0,0,0,.8497,7.86132,8.653,8.653,0,0,0,.9277,1.5411,7.29713,7.29713,0,0,0,.5723.6699,6.82508,6.82508,0,0,0,1.0546-.4824,24.26664,24.26664,0,0,0,3.61041-3.01371c-3.98341-4.61431.2373-10.332,5.51761-11.60742,4.915-1.1856,11.57712.8603,13.06743,5.91791a5.64887,5.64887,0,0,1-1.4942,5.92681,6.61,6.61,0,0,1-3.22651,1.5322A7.75906,7.75906,0,0,1,35,34.832a8.83171,8.83171,0,0,1-1.1719-.1972c-0.6533-.1543-1.2353-0.1309-1.2353-0.836V25.50389c0-.5654.0547-0.459-0.4131-0.5176-0.3701-.0449-0.7393-0.081-1.1104-0.1103a16.13431,16.13431,0,0,0-3.96091.0508c-0.4834.083-.5137,0.0058-0.5137,0.5302V29.8311c0,3.08881.2324,6.21381,0.1045,9.29782-0.0371.918-.0625,3.12311-1.0908,3.57811-1.1924.5274-2.2461-.5879-3.34571-0.8203,0.1514,1.5488-.8174,4.61531.9873,5.39651a7.4415,7.4415,0,0,0,5.30271.3926c3.65341-1.2403,4.834-5.30671,4.37211-8.64852A12.0113,12.0113,0,0,0,47.06643,32.7988,10.67562,10.67562,0,0,0,45.47273,21.582C40.62892,15.80367,30.7969,14.69527,23.94238,17.40917Z" style="fill:#fff"/></svg>