<svg id="06490b3a-c14f-4039-b50c-419be6e79516" data-name="PayPal" xmlns="http://www.w3.org/2000/svg" viewBox="0 0 56 56"><title>paypal</title><rect width="56" height="56" style="fill:#0d447b"/><path d="M34.93108,27.6091a9.033,9.033,0,0,1-5.40547,1.41375H28.46174a1.27481,1.27481,0,0,1-1.29762-1.63l1.28406-5.56466a2.20951,2.20951,0,0,1,2.05133-1.63209h1.4026a6.69985,6.69985,0,0,1,3.71225.8385,2.82378,2.82378,0,0,1,1.24951,2.54407,4.69509,4.69509,0,0,1-1.93281,4.03038m9.25593-8.568a6.47655,6.47655,0,0,0-2.36189-2.52095,10.64249,10.64249,0,0,0-3.72049-1.36764,28.25552,28.25552,0,0,0-5.05173-.39919H24.10818A2.21156,2.21156,0,0,0,22.05725,16.386l-6.05,26.21888a1.27515,1.27515,0,0,0,1.29548,1.63248h4.29709a2.21064,2.21064,0,0,0,2.04961-1.63222l1.469-6.356A2.21253,2.21253,0,0,1,27.16878,34.618h1.22186q7.86264,0,12.23294-3.22085A10.05371,10.05371,0,0,0,45,22.909a8.25279,8.25279,0,0,0-.813-3.86787" style="fill:#2cbad5"/><rect x="23.77167" y="17.23975" width="10.85559" height="9.29353" style="fill:#0d447b"/><path d="M32.9821,25.59527A9.02909,9.02909,0,0,1,27.57716,27.009H26.51355a1.27461,1.27461,0,0,1-1.29841-1.63062l1.28459-5.56347a2.21117,2.21117,0,0,1,2.04961-1.63341h1.40272a6.69235,6.69235,0,0,1,3.71212.83863,2.82511,2.82511,0,0,1,1.25045,2.54527,4.69552,4.69552,0,0,1-1.93254,4.02985M42.238,17.02649a6.50338,6.50338,0,0,0-2.3615-2.52121,10.65735,10.65735,0,0,0-3.72089-1.36658A28.3314,28.3314,0,0,0,31.10391,12.74H22.16053a2.21194,2.21194,0,0,0-2.05226,1.63262L14.05764,40.58981a1.2759,1.2759,0,0,0,1.297,1.63288h4.295a2.21171,2.21171,0,0,0,2.05094-1.63115l1.46823-6.35573a2.21141,2.21141,0,0,1,2.04961-1.63156h1.22294q7.86324,0,12.23427-3.22178A10.04969,10.04969,0,0,0,43.051,20.895a8.26126,8.26126,0,0,0-.813-3.86853" style="fill:#0d447b"/><path d="M31.96629,24.618a9.02537,9.02537,0,0,1-5.40307,1.41442H25.49735a1.27531,1.27531,0,0,1-1.29828-1.63089l1.2854-5.56467a2.21018,2.21018,0,0,1,2.04934-1.63115h1.40326a6.69187,6.69187,0,0,1,3.712.83757,2.82478,2.82478,0,0,1,1.24951,2.5454A4.69566,4.69566,0,0,1,31.96629,24.618m9.25633-8.568a6.499,6.499,0,0,0-2.36123-2.52175A10.68956,10.68956,0,0,0,35.14,12.1608a28.30046,28.30046,0,0,0-5.05213-.39813H21.14312A2.21073,2.21073,0,0,0,19.093,13.3945L13.04157,39.61231A1.276,1.276,0,0,0,14.339,41.2448h4.29522a2.21408,2.21408,0,0,0,2.052-1.63115l1.46718-6.3544A2.20889,2.20889,0,0,1,24.20306,31.628h1.22253q7.86264,0,12.23347-3.22245a10.05094,10.05094,0,0,0,4.37628-8.48706,8.27,8.27,0,0,0-.81272-3.8684" style="fill:#fff"/></svg>