<svg id="f1d21031-e9ac-495b-97c6-282dd884430a" data-name="Pinterest" xmlns="http://www.w3.org/2000/svg" viewBox="0 0 64 64"><title>pinterest</title><rect id="0f28c114-1866-455d-9800-fe00662132ee" data-name="BG" width="64" height="64" style="fill:#fff"/><path id="6b85b0b2-4f2f-4490-ac7b-7bb84edff871" data-name="Icon" d="M31.99993,0H0V64H21.79593c-0.24491-2.21539-.46576-11.53994.0973-13.95835,0.50865-2.18524,3.28333-13.91793,3.28333-13.91793a10.10844,10.10844,0,0,1-.83762-4.15707c0-3.89333,2.25662-6.8,5.06641-6.8,2.38879,0,3.54283,1.79353,3.54283,3.94418,0,2.40235-1.5296,5.994-2.31907,9.32271a4.06536,4.06536,0,0,0,4.14637,5.05966c4.97665,0,8.802-5.24741,8.802-12.822,0-6.704-4.81726-11.39142-11.69573-11.39142-7.96683,0-12.64315,5.97563-12.64315,12.15122a10.89206,10.89206,0,0,0,2.08374,6.38987,0.83731,0.83731,0,0,1,.19424.803c-0.21262.8845-.685,2.7863-0.77771,3.17542-0.12219.5126-.40585,0.62122-0.93633,0.37449-3.49728-1.62789-5.68355-6.74054-5.68355-10.8473,0-8.8326,6.4174-16.944,18.50057-16.944,9.71311,0,17.26166,6.92135,17.26166,16.17141,0,9.64986-6.08453,17.416-14.52969,17.416-2.83713,0-5.50454-1.474-6.41752-3.21514,0,0-1.40391,5.34609-1.74431,6.65612C26.55733,53.84307,24.851,62.14034,23.70952,64H64V0H31.99993Z" style="fill:#bd181f"/></svg>