<svg xmlns="http://www.w3.org/2000/svg" viewBox="0 0 64 64"><title>reddit</title><rect x="0.0985" width="64" height="64" style="fill:#cee3f6"/><path d="M45.84772,23.8076A2.72036,2.72036,0,0,0,41.02819,22.077a15.90821,15.90821,0,0,0-9.02869-2.56981,15.90592,15.90592,0,0,0-9.02773,2.56939,2.72085,2.72085,0,1,0-3.15069,4.24091,5.36011,5.36011,0,0,0-.14377,1.23167c0,3.07952,2.65254,5.75443,6.54741,7.10567q-0.06586.3655-.121,0.74131A5.35488,5.35488,0,0,0,23.01241,40.504c0,2.67527,1.62391,4.89244,3.74659,5.29515a14.88922,14.88922,0,0,0,1.1263,2.7773,3.6554,3.6554,0,0,0-1.28609-.22974,2.81617,2.81617,0,0,0-3.05995,2.47989,1.99462,1.99462,0,0,0,.10864.61954H40.27054a2.0699,2.0699,0,0,0,.10713-0.61954,2.81722,2.81722,0,0,0-3.062-2.47989,3.67213,3.67213,0,0,0-1.18154.19209A14.94688,14.94688,0,0,0,37.2404,45.7994c2.12318-.4022,3.74719-2.61967,3.74719-5.29537a5.35457,5.35457,0,0,0-3.09133-5.10811q-0.05518-.37574-0.12107-0.74144c3.89466-1.35134,6.54751-4.02608,6.54751-7.10536a5.35885,5.35885,0,0,0-.14382-1.23173A2.72168,2.72168,0,0,0,45.84772,23.8076Z" style="fill:#fff"/><circle cx="41.76266" cy="14.6984" r="2.14456" style="fill:#fff"/><circle cx="27.65814" cy="25.97967" r="1.99362" style="fill:#e84b1e"/><circle cx="36.34029" cy="25.97965" r="1.99469" style="fill:#e84b1e"/><path d="M31.99948,33.08521c2.14659,0,3.678-.47159,4.6495-1.44171a0.55377,0.55377,0,1,0-.78261-0.78369c-0.75326.75212-2.02871,1.11781-3.86689,1.11781s-3.113-.36559-3.865-1.11752a0.55377,0.55377,0,1,0-.7832.7831C28.32153,32.61353,29.85255,33.08521,31.99948,33.08521Z" style="fill:#000100"/><path d="M46.4015,23.80762A3.271,3.271,0,0,0,40.955,21.36129a16.399,16.399,0,0,0-8.16864-2.39045l1.688-5.33641,4.59079,1.08049a2.69865,2.69865,0,1,0,.22094-1.08581l-5.058-1.19046a0.55352,0.55352,0,0,0-.65492.372l-1.945,6.14869a16.55517,16.55517,0,0,0-8.58345,2.4016,3.27241,3.27241,0,1,0-3.84751,5.258,5.95068,5.95068,0,0,0-.07381.93022c0,2.34153,1.37092,4.52572,3.86017,6.15052A13.74887,13.74887,0,0,0,25.594,35.015a6.00188,6.00188,0,0,0-3.13538,5.489,5.79863,5.79863,0,0,0,3.87474,5.763c0.173,0.54.36518,1.05424,0.57513,1.5384-0.1021-.00741-0.205-0.01252-0.30933-0.01252a3.36587,3.36587,0,0,0-3.6137,3.03367,2.54209,2.54209,0,0,0,.13559.79028A0.55374,0.55374,0,0,0,23.64788,52H40.27055a0.5537,0.5537,0,0,0,.52872-0.38909,2.59041,2.59041,0,0,0,.1322-0.78428A3.36717,3.36717,0,0,0,37.3157,47.793q-0.11178,0-.22187.00584c0.20885-.48217.40012-0.99411,0.57239-1.53155a5.79838,5.79838,0,0,0,3.87514-5.76317,6.00184,6.00184,0,0,0-3.13562-5.4893,13.75108,13.75108,0,0,0,2.60985-1.31511c2.48971-1.6248,3.86087-3.80909,3.86087-6.15052a5.95054,5.95054,0,0,0-.07381-0.93021A3.27483,3.27483,0,0,0,46.4015,23.80762Zm-4.63934-10.7a1.59078,1.59078,0,1,1-1.58979,1.59087A1.59314,1.59314,0,0,1,41.76216,13.10759Zm-23.05609,10.7a2.1649,2.1649,0,0,1,3.40261-1.77828,7.97165,7.97165,0,0,0-2.6141,3.44706A2.16124,2.16124,0,0,1,18.70607,23.80762Zm18.62227,11.5748a24.651,24.651,0,0,1,.27939,3.72136c0,5.46467-1.77453,10.37905-4.23743,11.78864H30.62862c-2.46225-1.4091-4.23635-6.32348-4.23635-11.78864a24.65352,24.65352,0,0,1,.27932-3.7211A18.99182,18.99182,0,0,0,37.32834,35.38241ZM23.56621,40.50409a5.13486,5.13486,0,0,1,1.85226-4.09192c-0.08681.86734-.1338,1.7664-0.1338,2.69161a24.74881,24.74881,0,0,0,.675,5.83656A4.9324,4.9324,0,0,1,23.56621,40.50409Zm0.52892,10.38833c-0.00137-.02222-0.00206-0.04405-0.00206-0.06578a2.27693,2.27693,0,0,1,2.50612-1.92608,3.15952,3.15952,0,0,1,.91672.13389,9.04807,9.04807,0,0,0,1.35332,1.858H24.09513ZM37.3157,48.90055a2.27837,2.27837,0,0,1,2.50819,1.92608q0,0.03245-.00206.06578h-4.692a9.078,9.078,0,0,0,1.36853-1.88421A3.16745,3.16745,0,0,1,37.3157,48.90055Zm3.11809-8.39647A4.93232,4.93232,0,0,1,38.04,44.94061a24.74181,24.74181,0,0,0,.67532-5.83684c0-.92526-0.047-1.82439-0.13384-2.69177A5.135,5.135,0,0,1,40.43379,40.50409Zm-8.43428-5.46634c-6.48911,0-11.76838-3.35933-11.76838-7.48859,0-4.129,5.27928-7.48819,11.76838-7.48819,6.48965,0,11.76937,3.35924,11.76937,7.48819C43.76888,31.67841,38.48916,35.03775,31.99951,35.03775Zm12.50585-9.56131a7.97152,7.97152,0,0,0-2.6142-3.44681A2.16475,2.16475,0,0,1,44.50536,25.47644Z" style="fill:#000100"/></svg>