<svg id="208aa122-5a98-49ff-a824-8f1d775665e5" data-name="Skype" xmlns="http://www.w3.org/2000/svg" viewBox="0 0 64 64"><title>skype</title><rect id="4f3d20cd-bb35-47f2-81ad-740961629d4e" data-name="BG" width="64" height="64" style="fill:#29ace3"/><g id="701b011d-445d-4584-a23f-b2470cf176ae" data-name="Icon"><path d="M47.79739,34.83167c-0.011.05939-.019,0.11992-0.03053,0.17931l-0.05729-.34182c0.031,0.05315.05729,0.10834,0.08782,0.16251a16.22458,16.22458,0,0,0,.26659-2.91056,16.04143,16.04143,0,0,0-16.055-16.055,16.19333,16.19333,0,0,0-3.04044.28711l-0.00738.00108c0.05573,0.02994.11254,0.05627,0.16725,0.08674l-0.33708-.05255c0.05627-.01109.11308-0.02213,0.16983-0.03419a9.49969,9.49969,0,0,0-12.7659,12.99991c0.01-.05891.01685-0.11728,0.02789-0.17511l0.05837,0.336c-0.03053-.05261-0.05681-0.1078-0.08626-0.16089a16.11835,16.11835,0,0,0-.24242,2.76695,16.04785,16.04785,0,0,0,18.8683,15.80633c-0.05412-.03048-0.10936-0.05729-0.164-0.08885l0.34284,0.05993c-0.05945.011-.11884,0.01842-0.17883,0.02892A9.50076,9.50076,0,0,0,47.79739,34.83167Z" style="fill:#fff"/><path d="M32.07307,41.75389c-5.70432,0-8.25572-2.80383-8.25572-4.90616a1.793,1.793,0,0,1,1.893-1.83309c2.44042,0,1.80891,3.50475,6.3627,3.50475,2.33106,0,3.61885-1.26571,3.61885-2.5619,0-.77927-0.38436-1.64221-1.91984-2.02026L28.69927,32.6699c-4.08635-1.02432-4.82775-3.23288-4.82775-5.30941,0-4.31137,4.059-5.92994,7.87131-5.92994,3.51105,0,7.65,1.94035,7.65,4.527a1.85509,1.85509,0,0,1-2.05553,1.75265c-2.08342,0-1.7-2.8832-5.89575-2.8832-2.08289,0-3.2366.94285-3.2366,2.29219,0,1.34664,1.64538,1.77628,3.07253,2.10232l3.75557,0.83343c4.11316,0.916,5.15644,3.31753,5.15644,5.57972C40.18949,39.13782,37.5003,41.75389,32.07307,41.75389Z" style="fill:#2cace3"/></g></svg>