<svg id="9afa49bb-4410-4aa3-8328-fc066b150f08" data-name="Slack" xmlns="http://www.w3.org/2000/svg" viewBox="0 0 64 64"><title>slack</title><rect id="d583794e-dd84-4d6e-b392-c6546ed8f0a4" data-name="BG" width="64" height="64" style="fill:#44b48f"/><g id="8ff1ff75-57d6-4529-9fe8-fd75ede8de0b" data-name="Icon"><rect x="29.46368" y="29.5587" width="5.07255" height="4.88261" transform="translate(-8.50644 11.82007) rotate(-18.51796)" style="fill:#fff"/><rect x="29.46368" y="29.55869" width="5.07255" height="4.88261" transform="translate(-8.50646 11.82012) rotate(-18.51803)" style="fill:#fff"/><path d="M48.49324,27.05178c-3.71116-12.36992-9.07152-15.25618-21.44144-11.545s-15.25618,9.07152-11.545,21.44144,9.07152,15.2562,21.44146,11.545S52.2044,39.42172,48.49324,27.05178Zm-6.25655,8.03029-2.33237.78113,0.80835,2.41344a1.866,1.866,0,1,1-3.53878,1.18523l-0.80835-2.41352-4.8099,1.61086L32.364,41.0727a1.866,1.866,0,1,1-3.53876,1.18522l-0.8084-2.41357-2.33281.78127a1.866,1.866,0,0,1-1.185-3.53895l2.33254-.78118-1.55068-4.62978-2.3325.78116a1.866,1.866,0,0,1-1.18506-3.53893l2.33224-.78109-0.80836-2.41348a1.866,1.866,0,1,1,3.53875-1.18522l0.80839,2.41354,4.81-1.61089L31.636,22.92731a1.866,1.866,0,1,1,3.53875-1.18522l0.80837,2.41352,2.33267-.78123a1.866,1.866,0,0,1,1.185,3.53893l-2.33245.78116,1.55069,4.62985,2.3326-.7812A1.866,1.866,0,0,1,42.23668,35.08207Z" style="fill:#fff"/></g></svg>