<svg id="Slack" xmlns="http://www.w3.org/2000/svg" viewBox="0 0 56 56"><title>slack</title><rect id="BG" width="56" height="56" style="fill:#44b48f"/><g id="Icon"><rect x="25.46368" y="25.5587" width="5.07255" height="4.88261" transform="translate(-7.44313 10.34256) rotate(-18.51796)" style="fill:#fff"/><rect x="25.46368" y="25.55869" width="5.07255" height="4.88261" transform="translate(-7.44315 10.3426) rotate(-18.51803)" style="fill:#fff"/><path d="M44.49324,23.05178C40.78208,10.68186,35.42172,7.7956,23.0518,11.50676S7.79561,20.57828,11.50676,32.9482s9.07152,15.2562,21.44146,11.545S48.2044,35.42172,44.49324,23.05178Zm-6.25655,8.03029-2.33237.78113,0.80835,2.41344a1.866,1.866,0,1,1-3.53878,1.18523l-0.80835-2.41352-4.8099,1.61086L28.364,37.0727a1.866,1.866,0,1,1-3.53876,1.18522l-0.8084-2.41357-2.33281.78127a1.866,1.866,0,0,1-1.185-3.53895l2.33254-.78118-1.55068-4.62978-2.3325.78116a1.866,1.866,0,0,1-1.18506-3.53893l2.33224-.78109-0.80836-2.41348a1.866,1.866,0,1,1,3.53875-1.18522l0.80839,2.41354,4.81-1.61089L27.636,18.92731a1.866,1.866,0,1,1,3.53875-1.18522l0.80837,2.41352,2.33267-.78123a1.866,1.866,0,0,1,1.185,3.53893l-2.33245.78116,1.55069,4.62985,2.3326-.7812A1.866,1.866,0,0,1,38.23668,31.08207Z" style="fill:#fff"/></g></svg>