<svg id="SnapChat" xmlns="http://www.w3.org/2000/svg" viewBox="0 0 56 56"><title>snapchat</title><rect id="BG" width="56" height="56" style="fill:#f4e70a"/><g id="Icon"><path d="M28.237,45.60291c-0.0967,0-.19166-0.00276-0.28662-0.00727h-0.0002c-0.06052.00471-.12384,0.00727-0.18714,0.00727a8.20553,8.20553,0,0,1-5.02744-1.98323,7.33329,7.33329,0,0,0-2.90974-1.48445,9.39454,9.39454,0,0,0-1.52791-.129,10.44935,10.44935,0,0,0-2.11729.23905,4.634,4.634,0,0,1-.78912.114,0.49656,0.49656,0,0,1-.54831-0.3918c-0.08786-.29922-0.15137-0.589-0.2125-0.86933-0.15749-.72148-0.26933-1.1652-0.5717-1.21159-3.52428-.54436-4.533-1.28668-4.75789-1.81335a0.6787,0.6787,0,0,1-.05427-0.22549,0.39669,0.39669,0,0,1,.33186-0.41363c5.41765-.89215,7.84712-6.42932,7.948-6.66445l0.00865-.01927a2.06384,2.06384,0,0,0,.19364-1.73336c-0.37177-.87619-1.58433-1.26132-2.387-1.51591-0.19639-.06212-0.38257-0.1209-0.52941-0.17889-1.60163-.63321-1.73493-1.28315-1.672-1.6144a1.51284,1.51284,0,0,1,1.47169-.95779,1.03137,1.03137,0,0,1,.4384.08747,4.6666,4.6666,0,0,0,1.93014.50859,1.591,1.591,0,0,0,1.15341-.368c-0.01968-.36665-0.044-0.74963-0.069-1.14477-0.16138-2.56139-.36132-5.744.449-7.5607A9.80066,9.80066,0,0,1,27.61377,10.404c0.03893,0,.66665-0.00667.66665-0.00667l0.09-.00041a9.81763,9.81763,0,0,1,9.11576,5.87238c0.81054,1.81768.61,5.00307,0.44841,7.56248l-0.00669.11128c-0.02239.35642-.044,0.70283-0.06212,1.03445a1.54281,1.54281,0,0,0,1.05138.36566H38.918a4.82991,4.82991,0,0,0,1.819-.50562,1.37224,1.37224,0,0,1,.5652-0.11146,1.72649,1.72649,0,0,1,.65013.124L41.964,24.85485a1.19489,1.19489,0,0,1,.90824.97274c0.00708,0.37528-.27937.93951-1.68478,1.49468-0.14567.05721-.33183,0.11638-0.529,0.17889-0.80347.255-2.01566,0.63972-2.38721,1.51572A2.06325,2.06325,0,0,0,38.46463,30.75l0.00885,0.01968c0.10083,0.23492,2.52814,5.77053,7.94818,6.66367a0.39752,0.39752,0,0,1,.332.414,0.66558,0.66558,0,0,1-.05543.22668c-0.22354.52291-1.23146,1.26426-4.75693,1.809-0.288.04424-.39965,0.41954-0.5715,1.20649-0.0625.28643-.12582,0.56776-0.21291,0.86363a0.4708,0.4708,0,0,1-.50426.37687H40.60885a4.41361,4.41361,0,0,1-.78893-0.09948,10.52416,10.52416,0,0,0-2.11748-.22431,9.4055,9.4055,0,0,0-1.52869.129,7.32337,7.32337,0,0,0-2.90621,1.4823A8.20876,8.20876,0,0,1,28.237,45.60291Z" style="fill:#fff"/><path d="M28.37045,10.79405a9.41652,9.41652,0,0,1,8.75325,5.637c0.77082,1.72824.57365,4.85976,0.415,7.37571-0.02517.39889-.04954,0.78557-0.06939,1.15539l-0.00866.15862L37.567,25.239a1.886,1.886,0,0,0,1.33468.5011l0.01493,0.00041,0.01456-.00041a5.20585,5.20585,0,0,0,1.97456-.543,0.96,0.96,0,0,1,.39651-0.07392,1.32953,1.32953,0,0,1,.50091.09493l0.02241,0.00906a0.85545,0.85545,0,0,1,.64975.60806c0.00215,0.12838-.09378.58821-1.43375,1.11743-0.13092.0519-.30354,0.10655-0.50327,0.16964-0.87189.2772-2.18925,0.69476-2.63274,1.739a2.43764,2.43764,0,0,0,.20287,2.06442c0.15845,0.36938,2.64689,5.97658,8.24858,6.89957a0.25736,0.25736,0,0,1-.023.08963c-0.09515.22373-.6987,0.99575-4.45319,1.57528-0.5878.09064-.73189,0.74884-0.899,1.51473-0.05956.27387-.12148,0.55008-0.20581,0.83631-0.02538.08649-.03028,0.09161-0.12329,0.09161H40.60885a4.15686,4.15686,0,0,1-.71283-0.092,10.992,10.992,0,0,0-2.19358-.2316,9.77752,9.77752,0,0,0-1.59337.13428,7.62225,7.62225,0,0,0-3.0737,1.55168A7.88233,7.88233,0,0,1,28.237,45.206c-0.091,0-.18065-0.00294-0.27028-0.00727l-0.02361-.00119-0.02379.00218c-0.05149.0043-.1032,0.00628-0.15628,0.00628a7.885,7.885,0,0,1-4.7984-1.91027,7.61521,7.61521,0,0,0-3.07332-1.55209,9.7788,9.7788,0,0,0-1.59336-.13428,10.81548,10.81548,0,0,0-2.19377.24614,4.45246,4.45246,0,0,1-.71264.10674c-0.13584,0-.1386-0.00785-0.16731-0.106-0.08414-.28643-0.14587-0.57012-0.20564-0.84358-0.16729-.76592-0.312-1.428-0.899-1.51866-3.75489-.57976-4.358-1.35374-4.45338-1.57687A0.25935,0.25935,0,0,1,9.64338,37.826c5.60128-.9228,8.08972-6.52939,8.24817-6.89979a2.43634,2.43634,0,0,0,.20308-2.064c-0.44312-1.04466-1.76066-1.46263-2.63274-1.73982-0.19973-.06291-0.37235-0.11774-0.50328-0.16964-1.13216-.447-1.47993-0.89746-1.42784-1.17051a1.16474,1.16474,0,0,1,1.08146-.6348,0.64842,0.64842,0,0,1,.27012.04975,5.05884,5.05884,0,0,0,2.09842.5461,1.93668,1.93668,0,0,0,1.4532-.50444l0.10558-.118-0.00865-.158c-0.01985-.36921-0.044-0.7557-0.06939-1.1544-0.15845-2.516-.35545-5.64531.41537-7.37394a9.40545,9.40545,0,0,1,8.73693-5.63352c0.036,0,.67037-0.0063.67037-0.0063l0.08631-.00058m0-.79405H28.36888c-0.033,0-.06407,0-0.09358.00061h0s-0.61394.00608-.6627,0.00608a10.19177,10.19177,0,0,0-9.46135,6.10437c-0.84967,1.90554-.646,5.142-0.48263,7.74273,0.01927,0.30667.03971,0.625,0.05721,0.93263a1.52672,1.52672,0,0,1-.74509.16239,4.28067,4.28067,0,0,1-1.76147-.471,1.4214,1.4214,0,0,0-.60707-0.12445,1.90068,1.90068,0,0,0-1.86173,1.28042c-0.105.55182,0.14194,1.35686,1.916,2.05752,0.16,0.0633.3525,0.12425,0.55578,0.18852,0.73288,0.23277,1.84067.58428,2.14127,1.29238a1.70033,1.70033,0,0,1-.18422,1.40289c-0.00609.01278-.01219,0.02536-0.0177,0.03854-0.0975.22687-2.44206,5.5716-7.64738,6.42854a0.795,0.795,0,0,0-.6641.828,1.06847,1.06847,0,0,0,.08474.35682c0.39063,0.91335,2.03885,1.58257,5.03942,2.04827a3.73041,3.73041,0,0,1,.26834.90671c0.06272,0.288.1274,0.585,0.2196,0.8984a0.88786,0.88786,0,0,0,.92929.67627,4.83,4.83,0,0,0,.865-0.12169,10.114,10.114,0,0,1,2.04141-.23139,8.98991,8.98991,0,0,1,1.46382.12348,6.94309,6.94309,0,0,1,2.74342,1.41622A8.64387,8.64387,0,0,0,27.763,46c0.06448,0,.12935-0.00195.19345-0.00667C28.03272,45.99665,28.1316,46,28.237,46a8.64153,8.64153,0,0,0,5.25726-2.05633,6.94607,6.94607,0,0,1,2.745-1.41663,8.97358,8.97358,0,0,1,1.46322-.12348,10.17768,10.17768,0,0,1,2.04141.21666,4.79339,4.79339,0,0,0,.865.10675l0.0222,0.00038h0.02162a0.86338,0.86338,0,0,0,.88567-0.66349c0.09042-.30688.15529-0.59626,0.21938-0.88918a3.69884,3.69884,0,0,1,.26737-0.90294c3.00137-.46594,4.6492-1.13414,5.039-2.04358a1.05655,1.05655,0,0,0,.08571-0.35878,0.79379,0.79379,0,0,0-.66369-0.82766c-5.20771-.85831-7.55029-6.20186-7.6476-6.42852-0.0055-.013-0.0114-0.026-0.01789-0.03855a1.69908,1.69908,0,0,1-.184-1.40248c0.3004-.7081,1.40781-1.05961,2.14069-1.292,0.205-.06509.39771-0.12643,0.55616-0.18893,1.29829-.51272,1.94959-1.1424,1.93584-1.87156a1.55378,1.55378,0,0,0-1.16619-1.33681L42.101,24.48211a2.13063,2.13063,0,0,0-.79876-0.153,1.76644,1.76644,0,0,0-.73329.14862,4.46941,4.46941,0,0,1-1.651.46809,1.46549,1.46549,0,0,1-.64327-0.16c0.015-.26384.03186-0.53552,0.04975-0.81939l0.00667-.1103c0.16418-2.60247.368-5.8417-.48243-7.74864A10.20829,10.20829,0,0,0,28.37045,10h0Z" style="fill:#030304"/></g></svg>