<svg id="a38a6fe6-8631-4a1e-b093-aa7b2ee0b978" data-name="SoundCloud" xmlns="http://www.w3.org/2000/svg" viewBox="0 0 56 56"><title>soundcloud</title><rect width="56" height="56" style="fill:#e73c1e"/><path d="M9.93175,28.32845a0.17344,0.17344,0,0,0-.16633.16167l-0.39332,3.592L9.76543,35.595a0.16621,0.16621,0,0,0,.3323.00081l0.44769-3.51363-0.4475-3.59222A0.17386,0.17386,0,0,0,9.93175,28.32845Z" style="fill:#fff"/><path d="M8.45288,29.70424a0.16545,0.16545,0,0,0-.1604.15646L8,32.08216l0.29247,2.18359a0.16528,0.16528,0,0,0,.1604.15627,0.16773,0.16773,0,0,0,.16005-0.15546l0.34639-2.1844L8.61293,29.8599A0.16785,0.16785,0,0,0,8.45288,29.70424Z" style="fill:#fff"/><path d="M11.50322,27.62414a0.20524,0.20524,0,0,0-.2006.19634l-0.37322,4.262L11.30261,36.189a0.20514,0.20514,0,0,0,.2006.19657,0.2072,0.2072,0,0,0,.20015-0.19576l0.42426-4.10726-0.424-4.26221A0.20766,0.20766,0,0,0,11.50322,27.62414Z" style="fill:#fff"/><path d="M13.0876,27.47351a0.24038,0.24038,0,0,0-.23488.23066l-0.35285,4.37925,0.35285,4.23664a0.23465,0.23465,0,0,0,.46921,0l0.40085-4.23664-0.40085-4.38006A0.2416,0.2416,0,0,0,13.0876,27.47351Z" style="fill:#fff"/><polygon points="14.953 36.355 14.953 36.355 14.953 36.356 14.953 36.355" style="fill:#fff"/><path d="M14.95323,28.01983a0.26869,0.26869,0,0,0-.5373.0017l-0.333,4.06224,0.333,4.27154a0.2687,0.2687,0,0,0,.53735-0.00018l0.3773-4.27136Z" style="fill:#fff"/><path d="M16.29475,25.17648a0.30881,0.30881,0,0,0-.30288.29974l-0.31274,6.60926,0.31274,4.2711a0.30281,0.30281,0,0,0,.60558-0.0009V36.357l0.35384-4.27153-0.35384-6.60953A0.31028,0.31028,0,0,0,16.29475,25.17648Z" style="fill:#fff"/><path d="M17.89277,23.65381a0.34209,0.34209,0,0,0-.33733.334l-0.2923,8.12074,0.29266,4.24463a0.33691,0.33691,0,0,0,.67377-0.00162l-0.00018.00243,0.33087-4.24544-0.33069-8.12074A0.343,0.343,0,0,0,17.89277,23.65381Z" style="fill:#fff"/><path d="M19.55331,22.92012a0.37524,0.37524,0,0,0-.37132.36864l-0.2722,8.79842,0.27237,4.20092a0.37118,0.37118,0,0,0,.74231-0.00169l-0.00018.00251,0.30737-4.20174-0.30718-8.79859A0.37637,0.37637,0,0,0,19.55331,22.92012Z" style="fill:#fff"/><path d="M21.60717,22.99261a0.40525,0.40525,0,0,0-.81049.00027l-0.2521,9.09475,0.25228,4.17482a0.40515,0.40515,0,0,0,.81026-0.00179L21.89121,32.088Z" style="fill:#fff"/><polygon points="21.607 36.26 21.607 36.261 21.607 36.263 21.607 36.26" style="fill:#fff"/><path d="M22.86364,22.78846a0.44084,0.44084,0,0,0-.43961.43709l-0.23191,8.86288,0.23218,4.13491a0.43931,0.43931,0,0,0,.87859-0.00207v0.00295l0.26071-4.13579-0.26071-8.86333A0.44149,0.44149,0,0,0,22.86364,22.78846Z" style="fill:#fff"/><path d="M24.53809,23.07789a0.47413,0.47413,0,0,0-.47361.47177l-0.21164,8.53923,0.21182,4.10888a0.47344,0.47344,0,0,0,.94686-0.003v0.00341l0.23721-4.1089-0.23721-8.54051A0.4746,0.4746,0,0,0,24.53809,23.07789Z" style="fill:#fff"/><path d="M26.50583,21.50863a0.49646,0.49646,0,0,0-.55391-0.00426,0.5167,0.5167,0,0,0-.23416.42373L25.716,22.0239,25.52613,32.08682c0,0.0061.19163,4.08492,0.19163,4.08492l0.00117,0.01733a0.51155,0.51155,0,0,0,.50645.48555,0.50275,0.50275,0,0,0,.35528-0.1483,0.51666,0.51666,0,0,0,.15247-0.35689l0.02117-.40373L26.947,32.09,26.73317,21.92769A0.51772,0.51772,0,0,0,26.50583,21.50863Z" style="fill:#fff"/><polygon points="26.733 36.172 26.733 36.171 26.733 36.172 26.733 36.17 26.733 36.169 26.733 36.169 26.733 36.171 26.733 36.172" style="fill:#fff"/><path d="M28.18109,20.54508a0.53107,0.53107,0,0,0-.61747.04584,0.54963,0.54963,0,0,0-.20029.41673l-0.00112.05581L27.1412,32.091l0.11272,2.03852,0.1095,1.9838a0.54172,0.54172,0,0,0,1.08341-.00423V36.1138L28.688,32.091V32.09094l-0.24116-11.0841A0.54943,0.54943,0,0,0,28.18109,20.54508Z" style="fill:#fff"/><path d="M43.08035,26.84469a4.91589,4.91589,0,0,0-1.903.382,8.68174,8.68174,0,0,0-8.64536-7.91217,8.79275,8.79275,0,0,0-3.14741.58791,0.56107,0.56107,0,0,0-.47352.57848v15.6152a0.57881,0.57881,0,0,0,.53148.56457c0.01256,0.00126,13.63786,0,13.63786,0A4.908,4.908,0,1,0,43.08035,26.84469Z" style="fill:#fff"/></svg>