<svg xmlns="http://www.w3.org/2000/svg" viewBox="0 0 64 64"><title>spotify</title><rect width="64" height="64" style="fill:#121314"/><path d="M32,0H0V64H64V0H32ZM44.88,44.46a1.66383,1.66383,0,0,1-2.38.56c-6.58-4.06-14.84-4.9-24.64-2.66A1.73171,1.73171,0,0,1,17.02,39c10.64-2.38,19.88-1.4,27.16,3.08A1.6776,1.6776,0,0,1,44.88,44.46Zm3.36-7.7a2.10932,2.10932,0,0,1-2.94.7c-7.56-4.62-19.04-6.02-27.86-3.22a2.12551,2.12551,0,0,1-1.26-4.06C26.4,27.1,39,28.64,47.68,33.96A1.97661,1.97661,0,0,1,48.24,36.76Zm0.28-7.84c-8.96-5.32-23.94-5.88-32.48-3.22a2.56815,2.56815,0,0,1-1.54-4.9c9.94-2.94,26.32-2.38,36.68,3.78a2.706,2.706,0,0,1,.98,3.64A2.93351,2.93351,0,0,1,48.52,28.92Z" style="fill:#85bc25"/></svg>