<svg id="c74460d4-bf7d-4951-a9cf-36e66bbd4180" data-name="Spotify" xmlns="http://www.w3.org/2000/svg" viewBox="0 0 56 56"><title>spotify</title><rect width="56" height="56" style="fill:#121314"/><path d="M28,0H0V56H56V0H28ZM40.88,40.46a1.66383,1.66383,0,0,1-2.38.56c-6.58-4.06-14.84-4.9-24.64-2.66A1.73171,1.73171,0,0,1,13.02,35c10.64-2.38,19.88-1.4,27.16,3.08A1.6776,1.6776,0,0,1,40.88,40.46Zm3.36-7.7a2.10932,2.10932,0,0,1-2.94.7c-7.56-4.62-19.04-6.02-27.86-3.22a2.12551,2.12551,0,0,1-1.26-4.06C22.4,23.1,35,24.64,43.68,29.96A1.97661,1.97661,0,0,1,44.24,32.76Zm0.28-7.84c-8.96-5.32-23.94-5.88-32.48-3.22a2.56815,2.56815,0,0,1-1.54-4.9c9.94-2.94,26.32-2.38,36.68,3.78a2.706,2.706,0,0,1,.98,3.64A2.93351,2.93351,0,0,1,44.52,24.92Z" style="fill:#85bc25"/></svg>