<svg id="StackOverflow" xmlns="http://www.w3.org/2000/svg" viewBox="0 0 56 56"><title>stackoverflow</title><rect id="BG" width="56" height="56" style="fill:#f08029"/><g id="Icon"><polygon points="37.311 40.144 37.311 31.579 40.166 31.579 40.166 43 14.486 43 14.486 31.579 17.341 31.579 17.341 40.144 37.311 40.144" style="fill:#fff"/><path d="M20.48314,30.79093L34.45337,33.727l0.58722-2.794L21.07035,27.99687Zm1.84844-6.68923,12.94086,6.02684,1.20536-2.58817L23.537,21.51353Zm3.58109-6.34865,10.96944,9.13561,1.82711-2.19388L27.7398,15.55917ZM32.994,11l-2.29087,1.70394,8.5197,11.45438,2.29087-1.70394ZM20.19962,37.289l14.27544,0V34.4339l-14.27544,0V37.289Z" style="fill:#fff"/></g></svg>