<svg xmlns="http://www.w3.org/2000/svg" viewBox="0 0 64 64"><title>stackoverflow</title><rect width="64" height="64" style="fill:#f08029"/><polygon points="41.311 44.144 41.311 35.579 44.166 35.579 44.166 47 18.486 47 18.486 35.579 21.341 35.579 21.341 44.144 41.311 44.144" style="fill:#fff"/><path d="M24.48314,34.79093L38.45337,37.727l0.58722-2.794L25.07035,31.99687Zm1.84844-6.68923,12.94086,6.02684,1.20536-2.58817L27.537,25.51353Zm3.58109-6.34865,10.96944,9.13561,1.82711-2.19388L31.7398,19.55917ZM36.994,15l-2.29087,1.70394,8.5197,11.45438,2.29087-1.70394ZM24.19962,41.289l14.27544,0V38.4339l-14.27544,0V41.289Z" style="fill:#fff"/></svg>