<svg id="9d9f66a2-0ad4-4d6e-b899-f90c80591e8e" data-name="Steam" xmlns="http://www.w3.org/2000/svg" viewBox="0 0 64 64"><title>steam</title><rect id="aae90c5e-18a2-43d6-b72c-e83ff683a166" data-name="BG" width="64" height="64" style="fill:#171a21"/><g id="3f46387b-2817-4d94-976a-57cf79510650" data-name="Icon"><path d="M4,4V30.16876l13.71661,5.67a7.57313,7.57313,0,0,1,1.30267-.68671,7.665,7.665,0,0,1,3.25867-.576l6.808-9.872c-0.00269-.044-0.00269-0.0907-0.00269-0.13733A10.56738,10.56738,0,1,1,39.65137,35.136q-0.12,0-.24005-0.004L29.67,42.08142a7.71292,7.71292,0,0,1-15.23871,1.88269L4,39.65173V60H60V4H4Z" style="fill:none"/><path d="M19.666,47.78009a5.95145,5.95145,0,0,0,7.79333-7.76,5.936,5.936,0,0,0-7.60266-3.29468l3.556,1.4707a4.38175,4.38175,0,1,1-3.37067,8.08936l-3.44-1.424A5.9187,5.9187,0,0,0,19.666,47.78009Z" style="fill:none"/><path d="M39.65137,31.60938a7.04135,7.04135,0,1,0-7.04-7.04266A7.05119,7.05119,0,0,0,39.65137,31.60938ZM39.662,19.26532A5.28937,5.28937,0,1,1,34.37531,24.556,5.29151,5.29151,0,0,1,39.662,19.26532Z" style="fill:none"/><path d="M18.98859,49.40546a7.71733,7.71733,0,0,0,10.6814-7.324l9.74133-6.94934q0.12,0.00394.24005,0.004A10.568,10.568,0,1,0,29.08331,24.56671c0,0.04663,0,.09332.00269,0.13733l-6.808,9.872a7.665,7.665,0,0,0-3.25867.576,7.57313,7.57313,0,0,0-1.30267.68671L0,28.466v9.483l14.43127,6.01514A7.69906,7.69906,0,0,0,18.98859,49.40546ZM39.65137,17.52667a7.04135,7.04135,0,1,1-7.04,7.04A7.05067,7.05067,0,0,1,39.65137,17.52667ZM20.04193,46.28546a4.38175,4.38175,0,1,0,3.37067-8.08936l-3.556-1.4707a5.95416,5.95416,0,1,1-3.2547,8.136Z" style="fill:#fff"/><circle cx="39.66299" cy="24.55536" r="5.28903" style="fill:#fff"/></g></svg>