<svg id="Steam" xmlns="http://www.w3.org/2000/svg" viewBox="0 0 56 56"><title>steam</title><rect id="BG" width="56" height="56" style="fill:#171a21"/><g id="Icon"><path d="M0,0V26.16876l13.71661,5.67a7.57313,7.57313,0,0,1,1.30267-.68671,7.665,7.665,0,0,1,3.25867-.576l6.808-9.872c-0.00269-.044-0.00269-0.0907-0.00269-0.13733A10.56738,10.56738,0,1,1,35.65137,31.136q-0.12,0-.24005-0.004L25.67,38.08142a7.71292,7.71292,0,0,1-15.23871,1.88269L0,35.65173V56H56V0H0Z" style="fill:none"/><path d="M15.666,43.78009a5.95145,5.95145,0,0,0,7.79333-7.76,5.936,5.936,0,0,0-7.60266-3.29468l3.556,1.4707a4.38175,4.38175,0,1,1-3.37067,8.08936l-3.44-1.424A5.9187,5.9187,0,0,0,15.666,43.78009Z" style="fill:none"/><path d="M35.65137,27.60938a7.04135,7.04135,0,1,0-7.04-7.04266A7.05119,7.05119,0,0,0,35.65137,27.60938ZM35.662,15.26532A5.28937,5.28937,0,1,1,30.37531,20.556,5.29151,5.29151,0,0,1,35.662,15.26532Z" style="fill:none"/><path d="M14.98859,45.40546a7.71733,7.71733,0,0,0,10.6814-7.324l9.74133-6.94934q0.12,0.00394.24005,0.004A10.568,10.568,0,1,0,25.08331,20.56671c0,0.04663,0,.09332.00269,0.13733l-6.808,9.872a7.665,7.665,0,0,0-3.25867.576,7.57313,7.57313,0,0,0-1.30267.68671L0,26.16876v9.483l10.43127,4.31238A7.69906,7.69906,0,0,0,14.98859,45.40546ZM35.65137,13.52667a7.04135,7.04135,0,1,1-7.04,7.04A7.05067,7.05067,0,0,1,35.65137,13.52667ZM16.04193,42.28546a4.38175,4.38175,0,1,0,3.37067-8.08936l-3.556-1.4707a5.95416,5.95416,0,1,1-3.2547,8.136Z" style="fill:#fff"/><circle cx="35.66299" cy="20.55536" r="5.28903" style="fill:#fff"/></g></svg>