<svg id="0213c7f3-b21d-44a2-9e84-abdbc1d82a6e" data-name="StumbleUpon" xmlns="http://www.w3.org/2000/svg" viewBox="0 0 56 56"><title>stumbleupon</title><rect width="56" height="56" style="fill:#e74115"/><path id="e254e195-11e4-4efe-a26b-d6dcfda9876c" data-name="icon" d="M29.79927,24.74124L32.122,25.82363l3.46283-1.0339V22.387a7.58873,7.58873,0,0,0-15.16971-.04487V33.32025a1.79927,1.79927,0,1,1-3.59854,0V28.66772H11V33.3823a7.59649,7.59649,0,0,0,15.19224.10905l0.00849-10.84263a1.79927,1.79927,0,1,1,3.59854,0v2.09252Zm9.38415,3.92648v4.86969a1.79927,1.79927,0,0,1-3.59854,0V28.76053L32.122,29.79443,29.79927,28.712v4.73761A7.60051,7.60051,0,0,0,45,33.3823V28.66772H39.18342Z" style="fill:#fff"/></svg>