<svg xmlns="http://www.w3.org/2000/svg" viewBox="0 0 64 64"><title>stumbleupon</title><rect width="64" height="64" style="fill:#e74115"/><path d="M33.79927,28.74124L36.122,29.82363l3.46283-1.0339V26.387a7.58873,7.58873,0,0,0-15.16971-.04487V37.32025a1.79927,1.79927,0,1,1-3.59854,0V32.66772H15V37.3823a7.59649,7.59649,0,0,0,15.19224.10905l0.00849-10.84263a1.79927,1.79927,0,1,1,3.59854,0v2.09252Zm9.38415,3.92648v4.86969a1.79927,1.79927,0,0,1-3.59854,0V32.76053L36.122,33.79443,33.79927,32.712v4.73761A7.60051,7.60051,0,0,0,49,37.3823V32.66772H43.18342Z" style="fill:#fff"/></svg>