<svg id="561eb970-d1bb-4e5e-b87d-eaf645599508" data-name="Swarm" xmlns="http://www.w3.org/2000/svg" viewBox="0 0 64 64"><title>swarm</title><rect id="28ec3bf8-9ab6-4c44-a370-b12a1bcf327d" data-name="BG" width="64" height="64" style="fill:#f9ae1f"/><g id="0008efe1-834e-412a-ac9a-ecd5363d1949" data-name="Icon"><path d="M28.85309,42.84928a16.74969,16.74969,0,0,1-1.4376-6.39066,43.18206,43.18206,0,0,0-3.26375,6.1589c-0.03569.082-.56826,1.40106-0.72525,1.81143a1.017,1.017,0,0,0,.5765,1.29351c0.41009,0.15937,1.747.64561,1.83074,0.67371a43.231,43.231,0,0,0,6.6856,1.68282A16.75715,16.75715,0,0,1,28.85309,42.84928Z" style="fill:#ed6e09"/><path d="M32.31429,26.57966c-5.074-10.36961-16.34487-10-18.12407-5.36509-1.36564,3.55805,4.6088,12.03485,18.35841,5.91312l0.00641-.0032C32.50991,27.03981,32.3488,26.6754,32.31429,26.57966Z" style="fill:#fff"/><path d="M34.69865,25.86786c-2.80561-6.968,2.10783-10.96688,4.812-9.92876,2.00942,0.7712,3.09386,6.777-4.67087,10.23458l-0.00411.00146C34.81756,26.12417,34.72557,25.91857,34.69865,25.86786Z" style="fill:#fff"/><path d="M49.11492,33.76734a10.1397,10.1397,0,0,0-5.842-5.43776,2.26313,2.26313,0,0,0-.76864-0.133,2.76655,2.76655,0,0,0-2.67609,2.43882,13.6898,13.6898,0,0,0,1.23612,6.77668,13.69492,13.69492,0,0,0,4.12722,5.39117,2.7119,2.7119,0,0,0,4.0259-.98622A10.1409,10.1409,0,0,0,49.11492,33.76734Z" style="fill:#ed6e09"/><path d="M43.22139,45.378a16.841,16.841,0,0,1-5.11792-6.64689A16.83416,16.83416,0,0,1,36.59906,30.353a5.73481,5.73481,0,0,1,.65384-2.19543c-0.06444.01557-.20211,0.0498-0.20687,0.051a10.62212,10.62212,0,0,0-3.23254,1.42908,7.92253,7.92253,0,0,0-3.22257,3.96923,6.06352,6.06352,0,0,0-.29192,1.3942,13.851,13.851,0,0,0,5.1811,11.89049,7.79463,7.79463,0,0,0,4.39909,1.33214,9.11763,9.11763,0,0,0,4.09015-1.06631c0.39435-.20066,1.26322-0.74393,1.32006-0.78228A5.77153,5.77153,0,0,1,43.22139,45.378Z" style="fill:#ed6e09"/></g></svg>