<svg id="1509d175-0e64-4b60-8146-d4df7df3ed4d" data-name="Swarm" xmlns="http://www.w3.org/2000/svg" viewBox="0 0 56 56"><title>swarm</title><rect width="56" height="56" style="fill:#f9ae1f"/><path d="M24.85309,38.84928a16.74969,16.74969,0,0,1-1.4376-6.39066,43.18206,43.18206,0,0,0-3.26375,6.1589c-0.03569.082-.56826,1.40106-0.72525,1.81143a1.017,1.017,0,0,0,.5765,1.29351c0.41009,0.15937,1.747.64561,1.83074,0.67371a43.231,43.231,0,0,0,6.6856,1.68282A16.75715,16.75715,0,0,1,24.85309,38.84928Z" style="fill:#ed6e09"/><path d="M28.31429,22.57966c-5.074-10.36961-16.34487-10-18.12407-5.36509-1.36564,3.55805,4.6088,12.03485,18.35841,5.91312l0.00641-.0032C28.50991,23.03981,28.3488,22.6754,28.31429,22.57966Z" style="fill:#fff"/><path d="M30.69865,21.86786c-2.80561-6.968,2.10783-10.96688,4.812-9.92876,2.00942,0.7712,3.09386,6.777-4.67087,10.23458l-0.00411.00146C30.81756,22.12417,30.72557,21.91857,30.69865,21.86786Z" style="fill:#fff"/><path d="M45.11492,29.76734a10.1397,10.1397,0,0,0-5.842-5.43776,2.26313,2.26313,0,0,0-.76864-0.133,2.76655,2.76655,0,0,0-2.67609,2.43882,13.6898,13.6898,0,0,0,1.23612,6.77668,13.69492,13.69492,0,0,0,4.12722,5.39117,2.7119,2.7119,0,0,0,4.0259-.98622A10.1409,10.1409,0,0,0,45.11492,29.76734Z" style="fill:#ed6e09"/><path d="M39.22139,41.378a16.841,16.841,0,0,1-5.11792-6.64689A16.83416,16.83416,0,0,1,32.59906,26.353a5.73481,5.73481,0,0,1,.65384-2.19543c-0.06444.01557-.20211,0.0498-0.20687,0.051a10.62212,10.62212,0,0,0-3.23254,1.42908,7.92253,7.92253,0,0,0-3.22257,3.96923,6.06352,6.06352,0,0,0-.29192,1.3942,13.851,13.851,0,0,0,5.1811,11.89049,7.79463,7.79463,0,0,0,4.39909,1.33214,9.11763,9.11763,0,0,0,4.09015-1.06631c0.39435-.20066,1.26322-0.74393,1.32006-0.78228A5.77153,5.77153,0,0,1,39.22139,41.378Z" style="fill:#ed6e09"/></svg>