<svg xmlns="http://www.w3.org/2000/svg" viewBox="0 0 64 64"><title>tumblr</title><rect width="64" height="64" style="fill:#3b445c"/><path d="M37.36582,40.9545a5.77271,5.77271,0,0,0,1.33585-.17175V33.15289h5.77612V26.49931h-3.5509v3.68236H35.15077v8.40867C35.1848,40.70885,36.38154,40.9545,37.36582,40.9545Zm1.35944-22.293h-3.5509V23.5281h3.5509V18.66147Zm5.17025,24.46295a6.78569,6.78569,0,0,1-2.2947.75224l0.59105,1.75192c-1.06043,1.39572-3.69922,2.35708-6.11426,2.39819-0.08188.00135-.16242,0.002-0.24312,0.002H35.834a10.7108,10.7108,0,0,1-4.24107-.79021C32.94959,49.312,35.3593,50.99981,39.38487,51h0.00051c0.0807,0,.16124-0.00067.24312-0.002,2.415-.04111,5.05383-1.00247,6.11426-2.39819Z" style="fill:#12100b;opacity:0.25"/><path d="M34.74462,48.70126c3.37218,0,6.71346-1.20058,7.81878-2.65517l0.22139-.29147L40.69453,39.559a0.141,0.141,0,0,0-.13359-0.09591H35.89116a0.13931,0.13931,0,0,1-.13644-0.10141,3.25369,3.25369,0,0,1-.0919-0.77134V31.01279a0.141,0.141,0,0,1,.141-0.141H41.298a0.141,0.141,0,0,0,.141-0.141v-7.752a0.141,0.141,0,0,0-.141-0.141H35.82739a0.141,0.141,0,0,1-.141-0.141V15.141a0.141,0.141,0,0,0-.141-0.141H25.95154A1.62953,1.62953,0,0,0,24.358,16.452c-0.479,3.90038-2.26779,6.24029-5.62936,7.36374l-0.37508.1252a0.141,0.141,0,0,0-.09634.13373v6.65617a0.141,0.141,0,0,0,.141.141h3.43322v8.19806C21.83144,45.61421,26.36422,48.70126,34.74462,48.70126Zm6.42576-3.16306a8.46045,8.46045,0,0,1-5.28212,1.79848c-0.07817.00136-.15484,0.002-0.23184,0.002H35.65575c-6.80858-.00033-8.62517-5.19771-8.62517-8.26882v-9.4373a0.141,0.141,0,0,0-.141-0.141H23.59736a0.141,0.141,0,0,1-.141-0.141V25.0515a0.1396,0.1396,0,0,1,.08956-0.12959c3.5188-1.36978,5.48386-4.09158,6.00077-8.30144a0.24576,0.24576,0,0,1,.22173-0.24026h4.39678a0.141,0.141,0,0,1,.141.141v7.55589a0.141,0.141,0,0,0,.141.141h5.47056a0.141,0.141,0,0,1,.141.141v4.99157a0.141,0.141,0,0,1-.141.141H34.42359a0.141,0.141,0,0,0-.141.141l0.00016,8.96891c0.03235,2.01945,1.00972,3.04314,2.905,3.04314a7.08334,7.08334,0,0,0,2.43695-.4827,0.139,0.139,0,0,1,.18253.08515l1.39758,4.14287A0.1419,0.1419,0,0,1,41.17038,45.5382Z" style="fill:#fff"/><path d="M21.83144,30.87179h1.7357A2.08322,2.08322,0,0,1,25.65036,32.955v0.12254a0,0,0,0,1,0,0H21.83144a0,0,0,0,1,0,0V30.87179A0,0,0,0,1,21.83144,30.87179Z" style="fill:#3c445c;opacity:0.5"/></svg>