<svg id="6449abf4-477b-452d-824d-8edf69b27cd2" data-name="Twitter" xmlns="http://www.w3.org/2000/svg" viewBox="0 0 64 64"><title>twitter</title><rect id="243770ae-3638-406c-846b-6860a60b95bb" data-name="BG" width="64" height="64" style="fill:#5cc4e9"/><path id="21a731d4-a6be-4497-a7db-bb8147d61aa4" data-name="Icon" d="M51,20.83506a14.76452,14.76452,0,0,1-4.24205,1.163,7.40725,7.40725,0,0,0,3.24751-4.08621,14.78752,14.78752,0,0,1-4.69008,1.79235A7.39279,7.39279,0,0,0,32.7295,26.44059a20.9682,20.9682,0,0,1-15.22334-7.71692,7.394,7.394,0,0,0,2.28576,9.86071,7.35578,7.35578,0,0,1-3.34537-.92383c-0.00052.03087-.00063,0.06173-0.00063,0.09285a7.39027,7.39027,0,0,0,5.9247,7.24223,7.40438,7.40438,0,0,1-3.33547.12653,7.39348,7.39348,0,0,0,6.89946,5.12935,14.81958,14.81958,0,0,1-9.17274,3.16162A15.03452,15.03452,0,0,1,15,43.31a20.90553,20.90553,0,0,0,11.3218,3.31824c13.5853,0,21.01417-11.25429,21.01417-21.01437q0-.48031-0.02134-0.95546A15.01052,15.01052,0,0,0,51,20.83506Z" style="fill:#fff"/></svg>