<svg id="141931d0-a4b0-44dd-9d20-64a07cf96c6a" data-name="Vimeo" xmlns="http://www.w3.org/2000/svg" viewBox="0 0 56 56"><title>vimeo</title><rect width="56" height="56" style="fill:#1ab7ea"/><path d="M42.9835,21.09977q-0.22739,4.9639-6.93414,13.5922-6.934,9.00951-11.73236,9.01073-2.97381,0-5.0297-5.48758Q17.91516,33.184,16.54342,28.15294q-1.52657-5.48558-3.276-5.48781a10.51986,10.51986,0,0,0-2.66856,1.601L9,22.20617q2.51692-2.211,4.96125-4.42418,3.357-2.89942,5.03887-3.05285,3.9677-.38152,4.885,5.42505,0.99106,6.26548,1.37467,7.79109Q26.40529,33.14383,27.779,33.142q1.06622,0,3.20614-3.37288a13.2824,13.2824,0,0,0,2.28855-5.13288q0.30537-2.90973-2.28855-2.91185a6.3733,6.3733,0,0,0-2.51691.55734q2.50724-8.20829,9.57559-7.97829Q43.28447,14.45715,42.9835,21.09977Z" style="fill:#fff"/></svg>