<svg xmlns="http://www.w3.org/2000/svg" viewBox="0 0 64 64"><title>vine</title><rect width="64" height="64" style="fill:#35b18b"/><path d="M44.92932,32.93083a10.41282,10.41282,0,0,1-2.21789.24328c-4.04353,0-7.15014-2.82307-7.15014-7.72955,0-2.40393.92459-3.649,2.24366-3.649,1.24511,0,2.0834,1.12183,2.0834,3.40248a13.00316,13.00316,0,0,1-.60406,3.55041s1.24511,2.1697,4.64759,1.504a14.04133,14.04133,0,0,0,1.1095-5.49821c0-4.90647-2.50255-7.7542-7.0885-7.7542-4.70923,0-7.47066,3.62438-7.47066,8.39525,0,4.73389,2.20668,8.78974,5.85572,10.63891a30.27379,30.27379,0,0,1-5.52287,7.80351c-3.69835-4.46267-7.02686-10.417-8.39525-22.04215H16.95861c2.51488,19.35469,10.02252,25.5186,11.995,26.70207a2.81761,2.81761,0,0,0,3.11894.06164c1.61495-.91226,6.44745-5.74477,9.12259-11.41557a18.19787,18.19787,0,0,0,3.7499-.42106Z" style="fill:#fff"/></svg>