<svg xmlns="http://www.w3.org/2000/svg" viewBox="0 0 64 64"><title>whatsapp</title><rect width="64" height="64" style="fill:#55b262"/><path d="M44.75488,19.17023A17.9289,17.9289,0,0,0,16.543,40.7981L14,50.08649l9.5022-2.49261a17.90727,17.90727,0,0,0,8.5658,2.18176h0.00739A17.93244,17.93244,0,0,0,44.75488,19.17023ZM32.07532,46.74841h-0.006a14.87493,14.87493,0,0,1-7.58282-2.07666l-0.544-.32288-5.63873,1.47919,1.50507-5.49774-0.35425-.56366A14.89819,14.89819,0,1,1,32.07532,46.74841Zm8.172-11.158c-0.44781-.22418-2.64978-1.30756-3.06036-1.45715a0.69839,0.69839,0,0,0-1.00769.22412c-0.29852.4483-1.15686,1.45728-1.41821,1.75616a0.68537,0.68537,0,0,1-.97028.11212,12.23132,12.23132,0,0,1-3.60175-2.223A13.49963,13.49963,0,0,1,27.69745,30.9a0.65265,0.65265,0,0,1,.19635-0.91406c0.20154-.20068.44794-0.52313,0.67188-0.78467a3.05655,3.05655,0,0,0,.44781-0.74713,0.82472,0.82472,0,0,0-.03729-0.78467c-0.112-.22412-1.00769-2.42877-1.38092-3.32562a0.89254,0.89254,0,0,0-1.00769-.7688c-0.26093-.01294-0.55988-0.01575-0.8584-0.01575a1.64529,1.64529,0,0,0-1.19434.56042,5.02339,5.02339,0,0,0-1.56757,3.73639,8.71138,8.71138,0,0,0,1.82886,4.63318c0.22388,0.299,3.15814,4.82275,7.651,6.76276a25.72609,25.72609,0,0,0,2.55328.94342,6.137,6.137,0,0,0,2.821.17749c0.86053-.12854,2.64984-1.08337,3.02313-2.12952a3.74546,3.74546,0,0,0,.26117-2.12988A2.26414,2.26414,0,0,0,40.24731,35.59039Z" style="fill:#fff;fill-rule:evenodd"/></svg>