<svg id="fb82ba36-dcdd-405c-8705-66d0ec2f0bd0" data-name="WordPress" xmlns="http://www.w3.org/2000/svg" viewBox="0 0 64 64"><title>wordpress</title><rect id="d2e5350b-20d6-4db7-b445-c745eb46744e" data-name="BG" width="64" height="64" style="fill:#23769c"/><path id="4ae3637c-0f60-4258-a0af-a02cc28b20c6" data-name="Icon" d="M31.99986,14.99991A17.00009,17.00009,0,1,0,49,31.99941,17.019,17.019,0,0,0,31.99986,14.99991ZM16.71567,31.99941a15.22529,15.22529,0,0,1,1.32347-6.22033L25.33006,45.755A15.28529,15.28529,0,0,1,16.71567,31.99941ZM31.99986,47.28476a15.27806,15.27806,0,0,1-4.318-.62278l4.58634-13.32555L36.966,46.20767a1.428,1.428,0,0,0,.10945.21064A15.255,15.255,0,0,1,31.99986,47.28476Zm2.10648-22.45143c0.92-.04841,1.74922-0.14528,1.74922-0.14528a0.6318,0.6318,0,0,0-.0975-1.25962s-2.47566.1943-4.07381,0.1943c-1.5018,0-4.02541-.1943-4.02541-0.1943a0.6318,0.6318,0,0,0-.097,1.25962s0.77964,0.09687,1.60315.14528l2.38114,6.52451L28.2009,41.38934l-5.56558-16.556c0.92083-.04841,1.74915-0.14528,1.74915-0.14528a0.63182,0.63182,0,0,0-.09777-1.25962s-2.47522.1943-4.07353,0.1943c-0.28681,0-.62481-0.007-0.98372-0.01853a15.28037,15.28037,0,0,1,23.0916-2.876c-0.06588-.00412-0.13017-0.01238-0.198-0.01238a2.64653,2.64653,0,0,0-2.56665,2.71265c0,1.25962.72677,2.32528,1.50135,3.58489a8.05,8.05,0,0,1,1.26013,4.21524,18.50641,18.50641,0,0,1-1.163,4.941L39.63,41.2632Zm11.30561-.16646a15.28688,15.28688,0,0,1-5.72783,20.54365L44.35242,31.713a14.43284,14.43284,0,0,0,1.1623-5.47439A11.72765,11.72765,0,0,0,45.41195,24.66687Z" style="fill:#fff"/></svg>