<svg id="bc3cb195-5e7e-411b-ae14-9e4dd41c0bb1" data-name="Yelp" xmlns="http://www.w3.org/2000/svg" viewBox="0 0 64 64"><title>yelp</title><rect id="3c7581dc-6f82-4488-ae41-9d66680afa92" data-name="BG" width="64" height="64" style="fill:#d52021"/><g id="1e8a879c-1bf7-41a3-9c24-8252037fbca4" data-name="Icon"><path d="M20.38477,40.49609a2.67637,2.67637,0,0,1-2.26367-1.48828,5.53548,5.53548,0,0,1-.5-1.95605c-0.18555-1.79785-.05469-5.09277.81348-6.48047a2.69452,2.69452,0,0,1,2.28809-1.31055c0.65625,0.00977.65625,0.00977,6.624,2.46973l1.59473,0.65039a2.95279,2.95279,0,0,1,1.82813,2.9668,2.85206,2.85206,0,0,1-2.09375,2.69824c-0.27246.09082-.85645,0.27734-2.21094,0.709C21.08984,40.4834,21.03418,40.5,20.51953,40.5Z" style="fill:#d9272e"/><path d="M20.72244,30.76135L20.766,30.76215c0.27747,0.00323.52271,0.093,6.008,2.35535l1.601,0.65186a1.46825,1.46825,0,0,1,.89612,1.49908,1.37476,1.37476,0,0,1-.98227,1.32849c-0.01178.00525-2.28012,0.72913-2.28012,0.72913-4.75726,1.52966-5.22617,1.6734-5.48734,1.6734-0.019,0-.03683-0.00073-0.05518-0.00177a1.19136,1.19136,0,0,1-1.01514-.68414,4.32746,4.32746,0,0,1-.33923-1.42346c-0.19067-1.85107.04071-4.63782,0.59433-5.52148a1.1962,1.1962,0,0,1,1.01627-.60724m0-3a4.212,4.212,0,0,0-3.54626,1.99506c-1.27466,2.03436-1.18091,6.15607-1.04855,7.441a6.906,6.906,0,0,0,.673,2.52142,4.16027,4.16027,0,0,0,3.52835,2.27576c0.06354,0.00311.12637,0.00482,0.19244,0.00482,0.75327,0,.75327,0,6.40564-1.81738,1.26151-.40259,1.86539-0.59528,2.17758-0.69788a4.382,4.382,0,0,0,3.16193-4.04993,4.461,4.461,0,0,0-2.78833-4.4549L27.9053,30.339c-6.128-2.52753-6.22079-2.5658-7.06494-2.57617l-0.01767-.00067-0.10025-.00079h0Z" style="fill:#fff"/><path d="M30.69922,50.5c-1.97559,0-6.19531-1.55957-7.36719-2.96191a2.804,2.804,0,0,1-.65527-1.51367,2.52581,2.52581,0,0,1,.14941-1.15527c0.18359-.53223.1875-0.543,4.36035-5.44141l1.11719-1.32422A2.86174,2.86174,0,0,1,30.54,37.07324a3.18293,3.18293,0,0,1,1.14941.2168,2.88579,2.88579,0,0,1,1.91211,2.83789c-0.001.123-.0127,2.30664-0.0127,2.30664-0.01562,5.7627-.01562,5.7627-0.19824,6.28418a2.68843,2.68843,0,0,1-2.1084,1.7334A3.3796,3.3796,0,0,1,30.69922,50.5Z" style="fill:#d9272e"/><path d="M30.54117,38.57349a1.68965,1.68965,0,0,1,.60773.11548,1.37917,1.37917,0,0,1,.956,1.34583c-0.00333.02429-.01645,2.39221-0.01645,2.39221-0.01379,5.36273-.02429,5.54022-0.11377,5.797a1.19693,1.19693,0,0,1-.96518.75311A1.8868,1.8868,0,0,1,30.69772,49c-1.6105,0-5.38641-1.433-6.21567-2.42365a1.292,1.292,0,0,1-.31165-0.69629,1.05416,1.05416,0,0,1,.0618-0.49078c0.09271-.26721.25119-0.47565,4.09607-4.98889l1.12164-1.3288a1.38381,1.38381,0,0,1,1.09125-.49811m0-3a4.37362,4.37362,0,0,0-3.39862,1.58069L26.0358,38.46533c-4.314,5.06384-4.34689,5.10248-4.63126,5.92157a4.07729,4.07729,0,0,0-.21716,1.81219,4.29156,4.29156,0,0,0,.98145,2.28748C23.76984,50.39917,28.54214,52,30.69772,52a4.81994,4.81994,0,0,0,.81274-0.065,4.21983,4.21983,0,0,0,3.27924-2.674l0.00916-.02484,0.0087-.025c0.26538-.76154.26538-0.76154,0.28085-6.77649v0.00006s0.01068-1.957.015-2.29694a4.38628,4.38628,0,0,0-2.87445-4.24768,4.6722,4.6722,0,0,0-1.68777-.31665h0Z" style="fill:#fff"/><path d="M40.11426,47.9668a2.5903,2.5903,0,0,1-1.60937-.55469c-0.44727-.34961-0.46484-0.36328-3.83105-5.833l-0.90137-1.46582A3.06848,3.06848,0,0,1,36.33594,35.502a2.71,2.71,0,0,1,.97949.18262c0.27051,0.09375,2.19922.73047,2.2002,0.73047,5.47461,1.79688,5.47461,1.79688,5.91016,2.12207a2.72455,2.72455,0,0,1,.99609,2.57129c-0.27051,1.89941-3.44727,5.93652-5.22754,6.64355A2.87862,2.87862,0,0,1,40.11426,47.9668Z" style="fill:#d9272e"/><path d="M36.33569,37.00208a1.22961,1.22961,0,0,1,.44382.08264c0.02628,0.01544,2.26566.75482,2.26566,0.75482,5.09937,1.67322,5.265,1.737,5.482,1.89911a1.19841,1.19841,0,0,1,.41022,1.15448c-0.19589,1.37549-3.0079,4.95276-4.29724,5.46429a1.39172,1.39172,0,0,1-.5253.10944,1.09446,1.09446,0,0,1-.68509-0.23669c-0.21893-.17059-0.45041-0.51709-3.4787-5.437L35.051,39.32837a1.57077,1.57077,0,0,1,1.2847-2.32629m0-3a4.56743,4.56743,0,0,0-3.82446,6.92334l0.88382,1.43835c3.50983,5.70215,3.50983,5.70215,4.1908,6.23279a4.07221,4.07221,0,0,0,2.529.8703,4.3758,4.3758,0,0,0,1.65771-.33136c2.273-.90167,5.78537-5.36542,6.13486-7.8194a4.192,4.192,0,0,0-1.508-3.92157l-0.03784-.03021-0.03882-.029c-0.633-.4729-0.633-0.4729-6.34229-2.34625h0c-0.00266-.00092-1.82162-0.60107-2.15427-0.71588a4.21631,4.21631,0,0,0-1.49051-.27112h0Z" style="fill:#fff"/><path d="M34.00293,34.86426a3.29954,3.29954,0,0,1-.53613-0.63184,2.88067,2.88067,0,0,1,.11133-3.416c0.07227-.09766,1.37207-1.86621,1.37207-1.86719,3.41992-4.67773,3.41992-4.67773,3.88281-4.97852a2.60365,2.60365,0,0,1,1.4502-.43555,2.86132,2.86132,0,0,1,1.24609.292c1.69629,0.8291,4.51074,4.96582,4.7168,6.92188l0.0127,0.123-0.00391.07813a2.66078,2.66078,0,0,1-1.15625,2.36328c-0.49512.31934-.52246,0.33691-6.7373,1.84277-0.59375.14063-1.32422,0.31445-1.54785,0.39941l-4.38086,1.665Z" style="fill:#d9272e"/><path d="M40.282,25.03479a1.39076,1.39076,0,0,1,.6001.14532C42.11029,25.78,44.60477,29.485,44.754,30.90643a0.2527,0.2527,0,0,1,0,.04993,1.191,1.191,0,0,1-.49707,1.11548c-0.22946.14789-.453,0.22217-6.2493,1.62659a17.72508,17.72508,0,0,0-1.72784.455c0.00653-.00854.03152-0.04834,0.03152-0.04834a1.24334,1.24334,0,0,1-.33157.0448,1.53448,1.53448,0,0,1-1.25684-.73743,1.37222,1.37222,0,0,1,.01447-1.644c0.01706-.019,1.42145-1.93,1.42145-1.93,3.1033-4.24469,3.26569-4.46362,3.49115-4.61029a1.12165,1.12165,0,0,1,.632-0.1933m0-3a4.12271,4.12271,0,0,0-2.30154.70074c-0.65747.42737-.65747,0.42737-4.24344,5.33228,0,0-1.17123,1.59387-1.37018,1.86139a4.35951,4.35951,0,0,0-.32922,4.836L27.51416,40.688l9.8299-3.72974c0.17435-.06055.943-0.24286,1.356-0.34082,6.47647-1.56915,6.47647-1.56915,7.182-2.02386l0.02847-.01837,0.028-.019A4.17567,4.17567,0,0,0,47.757,31.00708l0.01657-.24823-0.05295-.30249c-0.35538-2.4798-3.43658-6.95331-5.5217-7.97186a4.38943,4.38943,0,0,0-1.91684-.44971h0Z" style="fill:#fff"/><path d="M30.77246,32.78418a3.67782,3.67782,0,0,1-3.03906-2.11426c-7.0459-11.08105-7.19824-11.39746-7.248-11.501l-0.05957-.126-0.03613-.13477a2.72746,2.72746,0,0,1,.7207-2.59082C22.47363,14.915,27.67871,13.5,29.81738,13.5a3.85765,3.85765,0,0,1,.92383.09766,2.73541,2.73541,0,0,1,2.01953,1.918L32.7793,15.583l0.0127,0.07031c0.11719,0.668.81445,11.38867,0.89355,13.19434,0.13086,2.72168-1.25,3.55176-2.08594,3.80371A2.67706,2.67706,0,0,1,30.77246,32.78418Z" style="fill:#d9272e"/><path d="M29.81741,15a2.41311,2.41311,0,0,1,.56223.054,1.219,1.219,0,0,1,.93494.85834c0.08282,0.47369.77188,10.70306,0.8718,13.00031,0.09534,1.95758-.74429,2.2196-1.0191,2.30243a1.22774,1.22774,0,0,1-.39438.06927c-0.4086,0-1.03937-.22754-1.76279-1.40131,0,0-7.00934-11.02386-7.17239-11.36346a1.23509,1.23509,0,0,1,.359-1.16669C23.14081,16.381,27.81326,15,29.81741,15m0-3c-2.26041,0-7.94159,1.37775-9.77255,3.26251a4.22457,4.22457,0,0,0-1.10477,4.03418l0.07233,0.26971,0.12088,0.25171c0.09564,0.19922.24023,0.50031,7.34521,11.67462,1.41788,2.30109,3.12,2.79163,4.29437,2.79163a4.16749,4.16749,0,0,0,1.29453-.20746c1.02753-.31946,3.30264-1.46527,3.11542-5.31018-0.06061-1.39429-.76511-12.52472-0.91309-13.37109l-0.02454-.14032L34.20749,15.118a4.213,4.213,0,0,0-3.093-2.9726A5.30747,5.30747,0,0,0,29.81741,12h0Z" style="fill:#fff"/></g></svg>