<svg id="67e0e757-539e-4c1d-9ad0-2e6505625787" data-name="YouTube" xmlns="http://www.w3.org/2000/svg" viewBox="0 0 56 56"><title>youtube</title><rect width="56" height="56" style="fill:#c5312b"/><path id="e09a7425-de32-42ce-864b-d0914fe230ef" data-name="The Sharpness" d="M24.28178,22.55453l8.53054,5.69632,1.19682-.62118Z" style="fill:#000100;fill-rule:evenodd;opacity:0.12"/><g id="4e61e708-ebec-4698-ad8b-763824970eb6" data-name="Lozenge"><path d="M45.6405,20.80225a7.789,7.789,0,0,0-1.43115-3.5733,5.1487,5.1487,0,0,0-3.60706-1.52484c-5.03772-.3642-12.59448-0.3642-12.59448-0.3642H27.99219s-7.55664,0-12.59448.3642a5.14944,5.14944,0,0,0-3.60706,1.52484,7.785,7.785,0,0,0-1.4306,3.5733A54.43989,54.43989,0,0,0,10,26.62872v2.73114a54.43989,54.43989,0,0,0,.36,5.82648,7.785,7.785,0,0,0,1.4306,3.5733,6.10437,6.10437,0,0,0,3.96948,1.53876C18.6402,40.57458,28,40.66,28,40.66s7.56458-.01135,12.60229-0.37549a5.14912,5.14912,0,0,0,3.60706-1.5249,7.789,7.789,0,0,0,1.43115-3.5733A54.52179,54.52179,0,0,0,46,29.35986V26.62872A54.52179,54.52179,0,0,0,45.6405,20.80225ZM24.28345,32.66956L24.2818,22.5545l9.72736,5.07513Z" style="fill:#fff"/></g></svg>