<svg xmlns="http://www.w3.org/2000/svg" viewBox="0 0 64 64"><title>youtube</title><rect width="64" height="64" style="fill:#c5312b"/><path d="M28.28178,26.55453l8.53054,5.69632,1.19682-.62118Z" style="fill:#000100;fill-rule:evenodd;opacity:0.12"/><path d="M49.6405,24.80225a7.789,7.789,0,0,0-1.43115-3.5733,5.1487,5.1487,0,0,0-3.60706-1.52484c-5.03772-.3642-12.59448-0.3642-12.59448-0.3642H31.99219s-7.55664,0-12.59448.3642a5.14944,5.14944,0,0,0-3.60706,1.52484,7.785,7.785,0,0,0-1.4306,3.5733A54.43989,54.43989,0,0,0,14,30.62872v2.73114a54.43989,54.43989,0,0,0,.36,5.82648,7.785,7.785,0,0,0,1.4306,3.5733,6.10437,6.10437,0,0,0,3.96948,1.53876C22.6402,44.57458,32,44.66,32,44.66s7.56458-.01135,12.60229-0.37549a5.14912,5.14912,0,0,0,3.60706-1.5249,7.789,7.789,0,0,0,1.43115-3.5733A54.52179,54.52179,0,0,0,50,33.35986V30.62872A54.52179,54.52179,0,0,0,49.6405,24.80225ZM28.28345,36.66956L28.2818,26.5545l9.72736,5.07513Z" style="fill:#fff"/></svg>